<svg width="178" height="129" viewBox="0 0 178 129" fill="none" xmlns="http://www.w3.org/2000/svg">
<g clip-path="url(#clip0_13_138)">
<path d="M144.053 81.9458C144.212 81.9606 144.372 81.926 144.511 81.8466C144.65 81.7672 144.761 81.6469 144.829 81.502C144.898 81.3571 144.92 81.1946 144.894 81.0366C144.867 80.8785 144.792 80.7324 144.68 80.6182C144.664 80.539 144.653 80.4821 144.637 80.4029C144.645 80.3862 144.652 80.3695 144.66 80.3528C144.839 79.9796 145.123 79.6676 145.477 79.4559C145.832 79.2443 146.241 79.1425 146.653 79.1632C147.065 79.184 147.461 79.3265 147.793 79.5728C148.124 79.819 148.376 80.1581 148.516 80.5474C149.076 82.1011 149.808 83.6655 149.931 85.2864C149.985 86.0029 149.915 86.7233 149.724 87.4157C151.356 84.2423 152.289 80.754 152.459 77.1872C152.501 76.2921 152.493 75.3954 152.435 74.5012C152.387 73.7681 152.307 73.0387 152.194 72.3131C151.581 68.3755 150.046 64.64 147.715 61.4133C146.547 60.7014 145.625 59.6474 145.072 58.3934C144.872 57.9425 144.738 57.4649 144.674 56.9755C144.808 56.9996 144.945 57.0171 145.08 57.0323C145.122 57.0365 145.166 57.0408 145.208 57.045L145.224 57.0465C145.372 57.0601 145.521 57.0304 145.653 56.9611C145.785 56.8917 145.894 56.7856 145.967 56.6555C146.04 56.5254 146.074 56.3768 146.065 56.2277C146.056 56.0787 146.004 55.9354 145.916 55.8152C145.861 55.7404 145.806 55.6656 145.751 55.5909C145.667 55.4756 145.582 55.3624 145.498 55.2471C145.488 55.2361 145.479 55.2245 145.471 55.2124C145.375 55.0809 145.279 54.9516 145.183 54.8201C145.382 54.5391 145.644 54.3081 145.947 54.1451C146.996 53.5925 148.386 54.0741 149.081 55.0357C149.778 55.9973 149.857 57.3045 149.547 58.4508C149.248 59.4247 148.787 60.3404 148.182 61.1588C148.234 61.2326 148.288 61.3042 148.34 61.3779C149.292 62.7318 150.11 64.1759 150.781 65.6898C150.678 64.0241 150.971 62.3578 151.635 60.8277C152.302 59.4041 153.483 58.2339 154.531 57.0252C155.79 55.5733 158.198 56.3451 158.319 58.2658C158.32 58.2844 158.321 58.3029 158.322 58.3215C158.171 58.3979 158.023 58.4795 157.878 58.5664C157.695 58.6767 157.551 58.8398 157.462 59.0342C157.374 59.2286 157.346 59.4453 157.382 59.6559C157.418 59.8664 157.517 60.0611 157.666 60.2143C157.814 60.3675 158.005 60.4722 158.214 60.5145L158.236 60.5189C158.159 61.0481 158.041 61.5708 157.885 62.0823C157.436 63.5095 156.697 64.8281 155.716 65.9555C154.735 67.0829 153.532 67.9948 152.183 68.6339C152.095 68.6743 152.008 68.7149 151.92 68.7531C152.565 70.9015 152.929 73.125 153.003 75.3677C153.042 76.6906 152.975 78.0146 152.802 79.3266L152.811 79.2802C153.162 77.8287 154.002 76.5434 155.189 75.6414C156.95 74.3222 159.372 73.9192 161.254 72.8806C161.454 72.7643 161.684 72.708 161.915 72.7183C162.146 72.7285 162.37 72.8049 162.559 72.9383C162.748 73.0718 162.896 73.2568 162.984 73.4716C163.072 73.6864 163.097 73.9219 163.056 74.1504C163.052 74.1667 163.049 74.1829 163.046 74.1992C162.768 74.2979 162.496 74.414 162.233 74.5466C162.082 74.623 161.934 74.7046 161.788 74.7915C161.606 74.9018 161.461 75.0649 161.373 75.2593C161.284 75.4537 161.256 75.6704 161.293 75.881C161.329 76.0915 161.428 76.2862 161.576 76.4394C161.725 76.5926 161.916 76.6973 162.125 76.7396L162.146 76.744C162.162 76.7469 162.175 76.7498 162.19 76.7527C161.672 77.8479 160.97 78.8454 160.115 79.7016C159.059 80.737 157.804 81.5453 156.426 82.0767C155.048 82.6081 153.576 82.8515 152.101 82.792L152.099 82.7919C151.618 84.5185 150.959 86.1902 150.133 87.7802L143.951 87.4914C143.932 87.4214 143.915 87.3494 143.899 87.2795C144.469 87.3423 145.045 87.3348 145.614 87.2572C145.182 86.671 144.749 86.0804 144.317 85.4943C144.307 85.4832 144.298 85.4717 144.29 85.4596C144.07 85.1597 143.849 84.8619 143.629 84.562L143.629 84.5617C143.658 83.6751 143.8 82.796 144.053 81.9459L144.053 81.9458Z" fill="#F2F2F2"/>
<path d="M19.4877 28.3072C19.3298 28.3319 19.1681 28.3072 19.0247 28.2366C18.8812 28.166 18.7628 28.0528 18.6856 27.9124C18.6084 27.772 18.576 27.6112 18.5929 27.4518C18.6098 27.2924 18.6751 27.142 18.7801 27.021C18.7912 26.941 18.7991 26.8835 18.8102 26.8035C18.8014 26.7873 18.7925 26.7711 18.7836 26.7549C18.5827 26.3935 18.2797 26.0997 17.9129 25.9104C17.546 25.7211 17.1316 25.6448 16.7217 25.6911C16.3118 25.7374 15.9246 25.9042 15.6089 26.1705C15.2931 26.4369 15.0629 26.7909 14.947 27.1881C14.4837 28.7736 13.8492 30.3804 13.8263 32.0058C13.8165 32.7243 13.931 33.439 14.1646 34.1182C12.3404 31.0521 11.1945 27.6282 10.8048 24.0788C10.7079 23.188 10.6607 22.2925 10.6635 21.3964C10.6664 20.6618 10.7015 19.9288 10.7687 19.1976C11.1382 15.2295 12.4405 11.406 14.5687 8.04097C15.6904 7.258 16.5459 6.14884 17.02 4.86296C17.1921 4.40055 17.2966 3.91557 17.3303 3.42311C17.1977 3.4555 17.0622 3.48148 16.9286 3.505C16.8869 3.51178 16.8431 3.51881 16.8014 3.5256L16.7857 3.52804C16.6386 3.55083 16.488 3.53047 16.3521 3.4694C16.2163 3.40834 16.1009 3.30918 16.0199 3.18386C15.9389 3.05854 15.8958 2.9124 15.8956 2.76303C15.8955 2.61367 15.9384 2.46745 16.0192 2.34198C16.0695 2.26392 16.1198 2.1859 16.1702 2.1079C16.2464 1.98764 16.3251 1.86935 16.4013 1.7491C16.4103 1.73748 16.4187 1.72535 16.4264 1.71276C16.5142 1.57557 16.6021 1.4406 16.6899 1.3034C16.4735 1.03525 16.1983 0.820877 15.8857 0.677004C14.8043 0.19054 13.4466 0.757364 12.8123 1.76018C12.1757 2.76323 12.1771 4.07282 12.5579 5.19768C12.9158 6.15115 13.4328 7.03653 14.0868 7.81592C14.0394 7.89275 13.9895 7.9676 13.942 8.04443C13.0752 9.45468 12.3481 10.9468 11.7714 12.4993C11.7717 10.8305 11.3771 9.18546 10.6201 7.6995C9.86658 6.31989 8.6159 5.22521 7.49529 4.08374C6.14926 2.71267 3.79356 3.63224 3.79124 5.55676C3.79121 5.57539 3.79124 5.59401 3.79131 5.61262C3.94663 5.67949 4.09941 5.75178 4.24965 5.82949C4.43851 5.92831 4.59323 6.08206 4.69351 6.27061C4.7938 6.45916 4.83498 6.67371 4.81166 6.88614C4.78835 7.09857 4.70162 7.29899 4.56284 7.46112C4.42407 7.62325 4.23971 7.73955 4.03394 7.79476L4.01287 7.80042C4.12237 8.32391 4.27137 8.83829 4.45858 9.33912C4.99516 10.7357 5.8135 12.0061 6.86232 13.0705C7.91114 14.1349 9.1678 14.9705 10.5535 15.5248C10.6443 15.5596 10.7329 15.5947 10.8235 15.6274C10.3117 17.8117 10.0852 20.0536 10.1497 22.2965C10.1919 23.6193 10.3406 24.9366 10.5945 26.2353L10.5829 26.1896C10.1425 24.7627 9.22489 23.5319 7.98492 22.7052C6.14546 21.4977 3.70426 21.2455 1.7613 20.3256C1.55418 20.222 1.32185 20.18 1.09172 20.2046C0.861595 20.2291 0.643261 20.3192 0.462473 20.4642C0.281685 20.6091 0.145984 20.8029 0.0713766 21.0228C-0.00323138 21.2426 -0.0136357 21.4792 0.041392 21.7047C0.0455982 21.7207 0.0498484 21.7368 0.0541395 21.7528C0.337728 21.8341 0.615989 21.9331 0.88731 22.0491C1.04263 22.116 1.1954 22.1883 1.34564 22.266C1.53451 22.3648 1.68922 22.5186 1.78951 22.7071C1.88979 22.8957 1.93097 23.1102 1.90766 23.3227C1.88434 23.5351 1.79762 23.7355 1.65884 23.8976C1.52006 24.0598 1.33571 24.1761 1.12993 24.2313L1.10885 24.2369C1.09365 24.2408 1.08066 24.2445 1.06549 24.2484C1.64999 25.3094 2.41214 26.2615 3.31856 27.063C4.43589 28.031 5.73852 28.7599 7.14656 29.2049C8.55461 29.6498 10.0384 29.8016 11.507 29.6507L11.5092 29.6505C12.0958 31.344 12.8563 32.9717 13.7784 34.5074L19.931 33.8359C19.9457 33.7649 19.9578 33.6919 19.9702 33.6212C19.4046 33.7192 18.8292 33.7475 18.2567 33.7052C18.6523 33.0934 19.0474 32.4771 19.4429 31.8653C19.452 31.8537 19.4604 31.8415 19.468 31.829C19.6684 31.516 19.8712 31.2051 20.0716 30.8922L20.0716 30.8918C19.9884 30.0088 19.7922 29.1401 19.4879 28.3074L19.4877 28.3072Z" fill="#F2F2F2"/>
<path d="M104.491 26.0195C104.796 26.1036 105.078 26.2536 105.319 26.4591C105.559 26.6645 105.752 26.9204 105.883 27.2086C106.015 27.4969 106.081 27.8105 106.079 28.1274C106.076 28.4443 106.004 28.7567 105.868 29.0428L109.17 32.7259L107.429 35.2849L102.839 30.018C102.375 29.757 102.023 29.3343 101.849 28.8301C101.675 28.3259 101.691 27.7752 101.895 27.2823C102.099 26.7894 102.476 26.3886 102.954 26.1559C103.433 25.9232 103.98 25.8746 104.491 26.0195Z" fill="#A0616A"/>
<path d="M135.401 35.0633C135.103 34.5772 134.713 34.1549 134.252 33.8205C133.792 33.4861 133.27 33.2462 132.717 33.1147C132.163 32.9831 131.59 32.9625 131.028 33.0539C130.467 33.1453 129.929 33.347 129.446 33.6474L118.588 40.395L106.875 30.4052L103.96 33.1276L116.9 49.9721L133.717 41.1755C133.325 41.3808 135.875 35.8378 135.401 35.0633Z" fill="#66CC00"/>
<path d="M113.89 57.4996C113.892 62.8804 112.836 68.2087 110.784 73.1801C108.733 78.1515 105.725 82.6686 101.933 86.4734C98.1406 90.2781 93.6386 93.2961 88.6838 95.3547C83.7291 97.4133 78.4186 98.4724 73.0558 98.4713C50.5038 98.4713 32.2212 80.1273 32.2212 57.4996C32.2173 53.0982 32.9205 48.7249 34.3038 44.548C37.0195 36.3906 42.2223 29.2961 49.1765 24.2679C56.1306 19.2397 64.4841 16.532 73.0558 16.5279C80.4484 16.5254 87.7029 18.5371 94.0449 22.3483C100.387 26.1596 105.578 31.6273 109.065 38.1678C109.93 39.7815 110.684 41.4523 111.322 43.1686C111.411 43.4076 111.497 43.6466 111.581 43.8879V43.8902C111.955 44.9509 112.285 46.0313 112.57 47.1315C113.45 50.5168 113.893 54.0012 113.89 57.4996Z" fill="#3F3D56"/>
<path d="M68.588 29.8565C66.7529 28.8608 64.7154 28.2988 62.6309 28.2132C60.5464 28.1276 58.47 28.5208 56.5599 29.3628C54.8782 30.0971 53.1074 31.4144 52.5464 33.7933C54.8154 32.4497 57.7526 34.5726 58.3364 37.9781L58.2001 38.0158C57.8918 40.3745 58.5802 42.9426 59.913 44.4052C60.088 42.886 61.0836 41.852 62.0628 41.2061C63.0421 40.5602 64.1254 40.0911 64.8728 38.9808C65.7589 37.6647 65.9839 35.7411 66.3359 33.9863C66.688 32.2315 67.3558 30.3455 68.588 29.8565Z" fill="#66CC00"/>
<path d="M55.8871 49.9289C55.2587 50.8758 54.4193 51.4699 53.6661 52.2097C52.9152 52.9517 52.2006 53.9532 52.0509 55.2393C51.9556 56.0633 52.1031 56.9009 52.0826 57.7341C52.0622 58.5671 51.7855 59.5049 51.2206 59.7121C50.329 60.0353 49.6484 58.3737 48.7319 58.2576C48.0037 58.1665 47.3481 59.316 47.5591 60.313C47.7701 61.31 48.7614 61.7515 49.3309 61.1005C49.8458 61.9678 49.4828 63.5407 48.7093 63.807C48.6276 64.3532 48.5459 64.8973 48.4665 65.4435C46.511 64.071 44.535 62.6757 42.8722 60.6658C41.0228 58.4494 39.8757 55.729 39.5782 52.8539C39.3627 50.5435 39.6825 47.9008 38.6254 46.1231C37.7792 44.7005 36.3273 44.3864 35.0206 44.4752C34.7824 44.4911 34.5419 44.5184 34.3037 44.548C35.0743 42.2257 36.0531 39.9783 37.2279 37.8332C37.4938 37.7187 37.7408 37.5644 37.9606 37.3757C39.1766 36.34 39.7166 34.2436 40.7034 32.7937C40.7669 32.7003 40.8327 32.6093 40.9008 32.5205C41.9103 31.1981 43.2624 30.5175 44.5691 29.8847C47.4615 28.4757 50.4379 27.0485 53.4914 27.2443L52.6226 27.3285C51.6085 30.1783 50.5937 33.0281 49.5781 35.8779C49.4239 36.315 49.2681 36.7527 49.1108 37.1913C48.5346 38.8119 47.9402 40.5373 48.0287 42.3515C48.0809 43.4258 48.4529 44.573 49.1607 44.9418C49.8209 45.2832 50.5423 44.8644 51.1797 44.4501C51.4497 44.2771 51.7174 44.1041 51.9874 43.9288C52.9561 43.3029 54.0291 42.661 55.0522 43.0798C55.9892 43.4622 56.6811 44.7392 56.8127 46.1163C56.9333 47.4549 56.6078 48.7959 55.8871 49.9289Z" fill="#66CC00"/>
<path d="M61.6484 69.3853C58.8192 67.6375 55.9901 65.8897 53.1609 64.1419L53.2089 64.0178C51.4499 64.69 50.7196 67.8273 51.0103 70.3929C51.301 72.9586 52.2867 75.2521 52.7847 77.752C53.4561 81.173 53.2027 84.712 52.0507 88.0015C55.7709 83.8132 59.0632 79.2613 61.8783 74.414C62.2715 73.8031 62.5712 73.1364 62.7672 72.4362C62.947 71.6913 62.9193 70.7958 62.5594 70.1985C62.3278 69.8557 62.0147 69.5762 61.6484 69.3853Z" fill="#66CC00"/>
<path d="M50.4826 37.5878C50.1822 38.2655 50.0666 39.1692 50.3392 39.8704C50.6176 40.5866 51.2062 40.9103 51.7481 41.1797L53.3113 41.9572C53.8314 42.2158 54.392 42.4771 54.9221 42.2643C55.5616 42.0076 56.0049 41.0018 55.8902 40.068C55.7682 39.0743 55.1439 38.3908 54.5666 37.8088C53.7586 36.9942 52.9507 36.1797 52.1428 35.3651L51.6875 35.9247C51.195 36.4067 50.7876 36.969 50.4826 37.5878Z" fill="#66CC00"/>
<path d="M105.51 48.2104C106.213 48.3766 106.917 48.5427 107.62 48.7089C107.497 51.0921 106.32 53.2977 104.741 54.0966C104.083 54.429 103.351 54.5519 102.806 55.1733C102.314 55.7378 102.064 56.6164 101.835 57.4563C101.434 58.9222 101.032 60.3881 100.63 61.8539C100.199 63.4336 99.6459 65.1886 98.5252 65.7577C97.5633 66.247 96.4631 65.6484 95.7235 64.6446C94.9839 63.6408 94.5325 62.291 94.0946 60.9754C94.1219 62.4093 93.4572 63.8161 92.5157 64.3145C91.572 64.813 90.4241 64.3623 89.7934 63.2493C89.3397 62.4503 89.1514 61.3964 88.7067 60.5861C88.2621 59.7758 87.3297 59.3114 86.8442 60.0717C86.5244 60.577 86.5652 61.3509 86.4064 61.9928C86.1591 62.9898 85.4105 63.6157 84.6687 63.6704C83.9291 63.725 83.2077 63.2971 82.5884 62.7166C81.3111 61.5148 80.3697 59.6074 80.0044 57.4882C79.8434 56.5436 79.798 55.5147 80.077 54.6293C80.3561 53.7439 81.0298 53.061 81.6991 53.2294C82.1392 52.2962 81.2703 51.0579 80.4876 51.1672C79.7027 51.2764 79.0879 52.1209 78.4436 52.7696C77.8016 53.4183 76.9033 53.8895 76.2567 53.2453C76.2613 53.844 75.7758 54.24 75.3561 54.19C74.9387 54.1422 74.5666 53.8053 74.1833 53.5663C72.7019 52.6399 70.8212 53.2545 69.7686 55.0071C70.4265 52.1983 71.3906 48.9752 73.4119 48.3151C74.2377 48.0442 75.1383 48.2673 75.9187 47.7984C77.3003 46.9676 77.5793 43.8287 76.386 42.5335C76.538 43.7581 76.5086 45.1876 75.8643 46.0252C75.22 46.8629 73.8679 46.3166 73.9496 45.0783C73.7635 45.9319 72.838 46.0616 72.4115 45.4061C71.9827 44.7506 72.019 43.6785 72.323 42.8954C72.627 42.1124 73.1442 41.5502 73.6456 41.0107C74.7231 39.8522 75.8166 38.6799 77.0643 37.9515C78.3143 37.2231 79.7572 36.9773 81.0094 37.7012C81.6696 38.0835 82.2503 38.7209 82.9241 39.0578C83.5979 39.3969 84.4531 39.3537 84.9001 38.5615C85.4014 37.6784 85.1655 36.3673 85.3515 35.2633C85.685 33.3126 87.6292 32.3999 88.7067 33.6882C87.9014 33.4811 87.0688 34.4371 86.969 35.5957C86.8669 36.7542 87.45 37.9242 88.2303 38.2748C89.5416 38.8575 90.8256 37.3916 91.817 36.035C92.8515 34.6146 93.8874 33.195 94.925 31.7762C95.0906 31.5346 95.2766 31.3077 95.4807 31.0979C95.8057 30.7801 96.2389 30.5981 96.6925 30.5888C97.1462 30.5795 97.5864 30.7436 97.924 31.0478C98.9721 31.9059 99.4644 33.6655 100.324 34.8764C101.572 36.6359 103.439 37.0638 105.177 37.4052C106.472 37.6579 107.768 37.9121 109.065 38.1678C109.93 39.7815 110.684 41.4523 111.322 43.1686C109.126 44.1041 107.1 45.8545 105.51 48.2104Z" fill="#66CC00"/>
<path d="M109.698 75.5977C108.726 77.5778 107.596 79.4756 106.318 81.2723C105.501 80.9217 104.623 81.5477 103.859 82.1349C103.06 82.7495 102.101 83.3482 101.282 82.7882C100.445 82.2146 100.175 80.6099 100.44 79.3375C100.705 78.0674 101.368 77.0567 102.01 76.0962C102.69 75.0764 103.419 74.018 104.365 73.6219C105.313 73.2259 106.531 73.7858 106.808 75.1379L107.479 75.1151C107.103 74.5962 107.3 73.5218 107.806 73.3329C108.389 73.1121 108.895 73.9156 109.24 74.6258C109.394 74.9467 109.551 75.2699 109.698 75.5977Z" fill="#66CC00"/>
<path d="M83.98 65.9832C82.5367 66.0743 81.3934 64.2915 80.6337 62.5376C79.8739 60.7837 79.1807 58.778 77.8784 57.8853C77.1343 57.3752 76.2859 57.3052 75.4787 57.058C74.6715 56.8108 73.8267 56.2994 73.4409 55.2578L72.5253 54.8867C71.3161 55.5688 70.091 56.2635 69.0491 57.3736C67.8805 58.6191 67.1526 60.2157 66.9777 61.9172C66.8028 63.756 67.4487 65.8063 68.6555 66.4971C69.609 67.0429 70.7192 66.6989 71.6851 67.1986C72.8918 67.8228 73.6083 69.6363 73.8795 71.4269C74.1507 73.2174 74.082 75.0783 74.276 76.8892C74.47 78.7 75.0048 80.5844 76.1115 81.5124C77.4964 82.6737 79.5285 81.7087 80.1499 79.5947C80.4547 78.5578 80.4442 77.3877 80.6721 76.3113C81.0736 74.4158 82.1568 73.0094 83.016 71.4545C83.8752 69.8996 84.5515 67.7877 83.98 65.9832Z" fill="#66CC00"/>
<path d="M69.7174 47.3567C69.852 47.481 69.9776 47.6148 70.0933 47.757C70.213 47.9641 70.2741 48.2 70.27 48.4394C70.2659 48.6787 70.1969 48.9124 70.0702 49.1153C70.244 49.1054 70.414 49.0594 70.5692 48.9802C70.7244 48.901 70.8616 48.7904 70.9721 48.6554C71.2355 48.3543 71.4673 48.0268 71.6636 47.678C71.8108 47.4371 71.9674 47.1115 71.8675 46.8254C71.7993 46.6302 71.6381 46.5469 71.525 46.4001C71.3459 46.1673 71.3015 45.7977 71.2087 45.4782C71.0085 44.7883 70.5287 44.281 70.0079 44.2084L70.0802 44.2223C69.8627 44.2971 69.7108 44.6437 69.7588 44.9556C69.8027 45.2397 69.9846 45.4755 69.9665 45.7652C69.9405 46.1817 69.5255 46.3772 69.4999 46.7939C69.4959 47.0029 69.574 47.2051 69.7174 47.3567Z" fill="#66CC00"/>
<path d="M67.2446 40.2776C67.2468 40.277 67.2489 40.2769 67.2511 40.2764C67.2955 40.2358 67.3366 40.1918 67.3742 40.1448L67.2446 40.2776Z" fill="#E6E6E6"/>
<path d="M67.6775 42.233C67.9966 42.0271 68.1749 41.4576 68.0693 40.981C67.9645 40.5074 67.5934 40.1889 67.2511 40.2764C67.1518 40.3774 67.0285 40.4514 66.8929 40.4915C66.7572 40.5315 66.6136 40.5364 66.4756 40.5054C66.264 40.4508 66.0317 40.31 65.8481 40.47C65.7431 40.5895 65.6696 40.7334 65.6344 40.8887C65.5665 41.098 65.4985 41.3072 65.4306 41.5164C65.3983 41.5913 65.3899 41.6744 65.4065 41.7543C65.4195 41.7863 65.4405 41.8144 65.4675 41.8359C65.4944 41.8575 65.5265 41.8717 65.5605 41.8772C65.9681 41.9977 66.3757 42.1183 66.7833 42.2389C67.0804 42.3267 67.4011 42.4114 67.6775 42.233Z" fill="#66CC00"/>
<path d="M98.449 69.2285C98.2605 68.919 98.0721 68.6095 97.8837 68.3C97.6986 67.9415 97.4456 67.6228 97.1388 67.3616C97.0714 67.3049 96.9933 67.2623 96.9092 67.2363C96.8252 67.2104 96.7367 67.2015 96.6492 67.2103C96.5617 67.2191 96.4768 67.2454 96.3995 67.2876C96.3222 67.3298 96.2541 67.387 96.1992 67.456L96.2222 67.6328C96.6516 68.1735 97.106 68.774 97.215 69.5764C97.2579 69.8927 97.243 70.2201 97.2806 70.5378C97.3183 70.8555 97.4254 71.1849 97.6297 71.3219C97.9264 71.5208 98.2748 71.2276 98.486 70.8698C98.6747 70.5759 98.7594 70.2268 98.7264 69.8788C98.6793 69.6452 98.5849 69.4239 98.449 69.2285Z" fill="#66CC00"/>
<path d="M106.835 57.4077C106.889 57.0492 106.944 56.6907 106.998 56.3321C107.087 55.9383 107.098 55.531 107.031 55.1329C107.015 55.046 106.983 54.963 106.935 54.8888C106.888 54.8145 106.826 54.7507 106.753 54.7008C106.68 54.651 106.599 54.6162 106.512 54.5986C106.426 54.5809 106.337 54.5808 106.251 54.5981L106.155 54.7482C106.137 55.4393 106.099 56.1923 105.667 56.8766C105.497 57.1463 105.276 57.3871 105.1 57.6545C104.925 57.9219 104.796 58.2431 104.864 58.48C104.964 58.8238 105.418 58.8246 105.81 58.6873C106.143 58.5844 106.431 58.3721 106.63 58.0844C106.743 57.8754 106.813 57.645 106.835 57.4077Z" fill="#66CC00"/>
<path d="M101.405 69.6313C101.497 69.3657 101.364 69.0609 101.336 68.7672C101.322 68.3879 101.422 68.0133 101.623 67.6917C101.823 67.3884 101.974 67.0557 102.072 66.7056C102.113 66.5461 102.105 66.3779 102.05 66.2227C101.988 66.0821 101.837 66.018 101.75 66.1293L101.936 66.2491C101.685 66.2043 101.428 66.2168 101.183 66.2857C101.043 66.3393 100.919 66.426 100.819 66.5383C100.72 66.6505 100.649 66.7852 100.613 66.9307C100.582 67.1577 100.532 67.3817 100.463 67.6C100.352 67.8281 100.138 67.904 100.004 68.1043C99.9121 68.2818 99.8658 68.4794 99.8691 68.6793C99.8724 68.8792 99.9252 69.0752 100.023 69.2496C100.192 69.5348 100.46 69.7467 100.776 69.8442C101.003 69.9257 101.301 69.93 101.405 69.6313Z" fill="#66CC00"/>
<path d="M106.668 71.2248C106.75 71.4385 106.86 71.6405 106.995 71.8254C107.247 72.0801 107.589 71.9236 107.895 71.8617C108.172 71.8177 108.456 71.8499 108.717 71.9548C108.978 72.0597 109.205 72.2334 109.375 72.4575C109.257 71.8643 108.998 71.3082 108.621 70.8361C108.244 70.364 107.759 69.9895 107.208 69.7443C106.487 69.4495 105.728 69.421 104.979 69.3945L104.849 69.4278C105.179 70.3913 106.215 70.3697 106.668 71.2248Z" fill="#66CC00"/>
<path d="M84.3748 73.1959L84.3767 73.2001C84.3894 73.1757 84.4021 73.1512 84.4148 73.1268L84.3748 73.1959Z" fill="#E6E6E6"/>
<path d="M83.5762 74.7462C83.4021 75.0634 83.2523 75.3935 83.1282 75.7336C82.964 76.2844 82.8552 76.8504 82.8036 77.4231C82.763 77.7487 82.7505 78.1645 82.9538 78.3232C83.0122 78.3621 83.0827 78.3783 83.1521 78.3689C83.2215 78.3594 83.2852 78.3249 83.3311 78.2718C83.444 78.1519 83.5364 78.0141 83.6046 77.8639C84.0042 77.1734 84.3145 76.4345 84.5279 75.6652C84.7225 74.855 84.7206 73.9011 84.3767 73.1996C84.1099 73.7151 83.8431 74.2306 83.5762 74.7462Z" fill="#66CC00"/>
<path d="M75.873 33.4295C75.9998 33.5539 76.1602 33.6383 76.3343 33.6724C76.5084 33.7065 76.6886 33.6887 76.8528 33.6213C77.1927 33.4722 77.5045 33.2655 77.7746 33.0103C77.9983 32.8443 78.188 32.6366 78.3335 32.3987C78.4136 32.2565 78.4649 32.0998 78.4846 31.9376C78.5042 31.7754 78.4917 31.611 78.4478 31.4536C78.3215 31.0832 78.0012 30.959 77.7186 30.8749C77.2662 30.7403 76.8137 30.6057 76.3613 30.4711L76.6886 30.1751C76.3518 29.9938 75.9793 30.3303 75.7688 30.7469C75.6339 31.019 75.5398 31.3095 75.4897 31.6092C75.377 32.2632 75.4872 33.0419 75.873 33.4295Z" fill="#E6E6E6"/>
<path d="M83.8606 30.7389C83.9882 30.88 84.1644 30.9671 84.3536 30.9825C84.5428 30.998 84.7307 30.9406 84.8793 30.8221C85.0072 30.7257 85.1134 30.6034 85.191 30.4631C85.2686 30.3228 85.3159 30.1677 85.3298 30.0079C85.3618 29.6508 85.1859 29.2539 84.9346 29.2231L84.9921 28.8888C84.508 28.8011 83.9122 28.7835 83.6528 29.3734C83.5653 29.5993 83.5384 29.8444 83.5749 30.084C83.6114 30.3236 83.7099 30.5495 83.8606 30.7389Z" fill="#E6E6E6"/>
<path d="M82.7936 12.9607C79.9555 12.6394 77.1064 13.4626 74.8731 15.2491C72.6398 17.0356 71.2053 19.6391 70.8852 22.4867C70.2185 28.4168 73.3322 41.294 79.009 46.6246C81.682 36.4116 91.0485 30.3538 92.2879 24.9091C93.6122 19.0913 88.7038 13.6296 82.7936 12.9607Z" fill="#FF6363"/>
<path d="M80.8306 26.1437C82.7703 26.1437 84.3427 24.566 84.3427 22.6197C84.3427 20.6735 82.7703 19.0958 80.8306 19.0958C78.8908 19.0958 77.3184 20.6735 77.3184 22.6197C77.3184 24.566 78.8908 26.1437 80.8306 26.1437Z" fill="white"/>
<path d="M77.1378 51.7057C78.4083 51.7057 79.4382 50.6723 79.4382 49.3976C79.4382 48.1228 78.4083 47.0894 77.1378 47.0894C75.8673 47.0894 74.8374 48.1228 74.8374 49.3976C74.8374 50.6723 75.8673 51.7057 77.1378 51.7057Z" fill="#6C63FF"/>
<path opacity="0.2" d="M83.7366 20.095C84.1319 20.3333 84.4766 20.6475 84.7509 21.0195C85.0252 21.3915 85.2239 21.8141 85.3354 22.2631C85.447 22.7121 85.4693 23.1788 85.4012 23.6365C85.333 24.0942 85.1756 24.5339 84.938 24.9306C84.7005 25.3272 84.3874 25.6731 84.0166 25.9483C83.6459 26.2236 83.2247 26.4229 82.7772 26.5348C81.8734 26.7609 80.9171 26.6174 80.1187 26.1361C80.9327 26.3178 81.7847 26.2029 82.522 25.8119C83.2593 25.4209 83.8339 24.7795 84.1429 24.0023C84.4519 23.2251 84.4752 22.3629 84.2085 21.5701C83.9419 20.7772 83.4027 20.1055 82.6875 19.6751C83.0575 19.7574 83.4118 19.8992 83.7366 20.095Z" fill="#231F20"/>
<path opacity="0.2" d="M92.3014 24.9205C91.062 30.3651 81.6955 36.423 79.0226 46.636C78.4887 46.1299 77.9928 45.5848 77.5391 45.0053C80.5427 35.4053 89.3262 29.572 90.5237 24.3115C91.5954 19.6032 88.5849 15.1286 84.2651 13.2384C89.4942 14.5573 93.515 19.589 92.3014 24.9205Z" fill="#231F20"/>
<path d="M49.8808 26.7107C47.7494 26.4695 45.6099 27.0877 43.9327 28.4293C42.2556 29.7708 41.1784 31.726 40.938 33.8645C40.4373 38.3177 42.7756 47.9881 47.0387 51.9912C49.046 44.3215 56.0799 39.7723 57.0106 35.6836C58.0051 31.3146 54.3192 27.213 49.8808 26.7107Z" fill="#FF6363"/>
<path d="M48.4066 36.6107C49.8633 36.6107 51.0441 35.4259 51.0441 33.9643C51.0441 32.5028 49.8633 31.318 48.4066 31.318C46.9499 31.318 45.769 32.5028 45.769 33.9643C45.769 35.4259 46.9499 36.6107 48.4066 36.6107Z" fill="white"/>
<path d="M45.6333 55.8069C46.5874 55.8069 47.3608 55.0309 47.3608 54.0736C47.3608 53.1163 46.5874 52.3402 45.6333 52.3402C44.6792 52.3402 43.9058 53.1163 43.9058 54.0736C43.9058 55.0309 44.6792 55.8069 45.6333 55.8069Z" fill="#6C63FF"/>
<path opacity="0.2" d="M50.589 32.0683C50.8859 32.2473 51.1447 32.4833 51.3507 32.7626C51.5567 33.042 51.7059 33.3593 51.7897 33.6965C51.8735 34.0337 51.8902 34.3842 51.839 34.7279C51.7878 35.0716 51.6697 35.4018 51.4913 35.6997C51.3129 35.9976 51.0777 36.2573 50.7993 36.464C50.5209 36.6707 50.2046 36.8204 49.8685 36.9044C49.5325 36.9885 49.1832 37.0053 48.8406 36.9539C48.4981 36.9026 48.169 36.784 47.8721 36.605C48.4834 36.7414 49.1232 36.6551 49.6769 36.3615C50.2306 36.0679 50.6621 35.5862 50.8941 35.0026C51.1262 34.4189 51.1437 33.7715 50.9434 33.1761C50.7432 32.5807 50.3383 32.0762 49.8012 31.753C50.079 31.8148 50.3451 31.9213 50.589 32.0683Z" fill="#231F20"/>
<path opacity="0.2" d="M57.0208 35.6921C56.0901 39.7809 49.0562 44.3301 47.0489 51.9997C46.6479 51.6196 46.2756 51.2103 45.9348 50.7751C48.1904 43.5659 54.7866 39.1853 55.6858 35.2348C56.4907 31.699 54.2299 28.3388 50.9858 26.9193C54.9127 27.9098 57.9322 31.6884 57.0208 35.6921Z" fill="#231F20"/>
<path d="M132.456 122.577H129.56L128.183 111.37L132.457 111.37L132.456 122.577Z" fill="#A0616A"/>
<path d="M134.014 128.095H131.959L131.592 126.148L130.653 128.095H125.203C124.942 128.095 124.687 128.011 124.477 127.855C124.266 127.7 124.111 127.481 124.033 127.231C123.956 126.981 123.96 126.712 124.045 126.464C124.13 126.217 124.292 126.003 124.507 125.854L128.859 122.838V120.87L133.437 121.144L134.014 128.095Z" fill="black"/>
<path d="M121.24 122.577H118.344L116.966 111.37L121.24 111.37L121.24 122.577Z" fill="#A0616A"/>
<path d="M122.798 128.095H120.743L120.376 126.148L119.437 128.095H113.986C113.725 128.095 113.471 128.011 113.26 127.855C113.05 127.7 112.894 127.481 112.817 127.231C112.739 126.981 112.743 126.712 112.828 126.464C112.913 126.217 113.075 126.003 113.29 125.854L117.643 122.838V120.87L122.22 121.144L122.798 128.095Z" fill="black"/>
<path d="M110.238 92.9871C110.792 93.8212 116.821 116.75 116.821 116.75L122.167 117.361L121.532 111.592L120.562 101.383L119.06 94.569C119.06 94.569 124.364 82.4584 124.699 81.4937L124.937 80.8014L126.594 95.8896C126.791 96.4283 126.877 97.0015 126.847 97.5745C126.797 98.5169 127.739 112.696 127.739 112.696L128.192 117.781L132.772 118.419L134.63 109.621C136.182 106.763 135.292 96.6069 134.658 95.6616C134.023 94.7163 134.275 88.1328 134.275 88.1328C135.086 87.8467 139.918 71.315 137.501 71.4126C137.656 70.5313 137.778 69.7445 137.778 69.7445L133.583 66.3498L123.084 63.6114L120.435 62.3353C120.435 62.3353 115.704 71.1124 115.751 71.5489C115.816 72.1017 115.69 72.6602 115.394 73.1308L110.617 89.1699C110.617 89.1699 109.678 92.1447 110.238 92.9871Z" fill="black"/>
<path d="M136.615 35.5934L134.945 32.0352L129.26 32.2545L127.406 35.9561C127.406 35.9561 122.106 42.3067 121.935 44.3717C121.719 46.9688 123.512 59.6975 121.719 58.8724C121.719 58.8724 117.492 63.8502 119.993 63.8502C122.494 63.8502 133.808 70.9759 134.55 71.7773C135.292 72.5786 138.606 73.0982 138.328 71.4252C138.05 69.7523 136.615 60.7047 136.615 60.7047L140.502 46.4782C141.62 43.4067 141.968 39.9614 139.44 37.8982L136.615 35.5934Z" fill="#66CC00"/>
<path d="M115.558 25.1209C114.797 24.818 113.985 24.6684 113.167 24.6806C112.349 24.6928 111.542 24.8665 110.79 25.1918C110.039 25.5171 109.359 25.9877 108.79 26.5767C108.22 27.1656 107.771 27.8614 107.469 28.6244C106.2 31.8329 105.99 39.4952 108.352 43.3354C111.389 38.0417 117.534 36.087 119.05 33.2366C120.669 30.1908 118.756 26.3945 115.558 25.1209Z" fill="#FF6363"/>
<path d="M113.001 32.252C114.123 32.252 115.032 31.3394 115.032 30.2135C115.032 29.0877 114.123 28.175 113.001 28.175C111.879 28.175 110.969 29.0877 110.969 30.2135C110.969 31.3394 111.879 32.252 113.001 32.252Z" fill="white"/>
<path d="M106.888 45.9334C107.623 45.9334 108.218 45.3356 108.218 44.5982C108.218 43.8608 107.623 43.263 106.888 43.263C106.153 43.263 105.557 43.8608 105.557 44.5982C105.557 45.3356 106.153 45.9334 106.888 45.9334Z" fill="#6C63FF"/>
<path opacity="0.2" d="M115.005 29.2469C115.377 29.6373 115.58 30.16 115.568 30.7002C115.556 31.2403 115.331 31.7537 114.942 32.1276C114.554 32.5014 114.033 32.7051 113.495 32.6939C112.956 32.6827 112.444 32.4575 112.071 32.0679C112.498 32.2933 112.991 32.3589 113.462 32.253C113.933 32.1471 114.35 31.8765 114.64 31.4897C114.931 31.103 115.074 30.6253 115.045 30.1421C115.016 29.659 114.817 29.2019 114.483 28.8527C114.677 28.955 114.853 29.0881 115.005 29.2469Z" fill="#231F20"/>
<path opacity="0.2" d="M119.056 33.245C117.54 36.0954 111.395 38.0501 108.358 43.3438C108.136 42.98 107.942 42.6002 107.776 42.2076C110.906 37.3065 116.691 35.3883 118.155 32.6343C119.466 30.1694 118.463 27.2132 116.337 25.5001C119.057 27.0328 120.54 30.4539 119.056 33.245Z" fill="#231F20"/>
<path d="M106.288 44.1385C106.597 44.0745 106.917 44.0793 107.224 44.1527C107.531 44.226 107.819 44.3661 108.066 44.563C108.314 44.7599 108.515 45.0088 108.657 45.2923C108.798 45.5757 108.875 45.8868 108.884 46.2036L113.493 47.9788L113.101 51.0524L106.627 48.4537C106.096 48.4327 105.591 48.2168 105.207 47.847C104.824 47.4772 104.589 46.9791 104.547 46.4472C104.505 45.9153 104.66 45.3865 104.98 44.9609C105.301 44.5354 105.766 44.2428 106.288 44.1384L106.288 44.1385Z" fill="#A0616A"/>
<path d="M138.494 37.8047C138.009 37.5074 137.47 37.3092 136.908 37.2214C136.346 37.1336 135.772 37.158 135.22 37.2931C134.668 37.4282 134.147 37.6714 133.689 38.0088C133.23 38.3461 132.842 38.771 132.548 39.259L125.932 50.2209L110.974 46.6633L109.611 50.4171L128.767 59.5214L138.468 44.017C139.921 41.9689 140.632 39.1145 138.494 37.8047Z" fill="#66CC00"/>
<path d="M138.741 24.3705C138.741 25.4271 138.483 26.4675 137.989 27.4006C137.495 28.3337 136.781 29.1309 135.908 29.7221C135.035 30.3134 134.031 30.6806 132.984 30.7917C131.937 30.9028 130.879 30.7542 129.902 30.3591C128.925 29.9639 128.061 29.3343 127.383 28.5255C126.706 27.7166 126.236 26.7533 126.017 25.72C125.797 24.6867 125.833 23.6151 126.123 22.5993C126.412 21.5834 126.945 20.6544 127.676 19.8937L127.707 19.8627C127.759 19.8085 127.81 19.7543 127.864 19.7026C127.864 19.7026 127.865 19.7026 127.865 19.7024C127.865 19.7023 127.866 19.7021 127.866 19.7019C127.866 19.7016 127.866 19.7013 127.866 19.701C127.867 19.7007 127.867 19.7004 127.867 19.7C127.934 19.6381 128 19.5761 128.07 19.5167C128.999 18.699 130.144 18.1675 131.367 17.9857C132.59 17.8039 133.839 17.9796 134.965 18.4917C136.091 19.0039 137.046 19.8308 137.716 20.8734C138.385 21.916 138.741 23.1302 138.741 24.3705V24.3705Z" fill="#2F2E41"/>
<path d="M130.723 31.2763C133.702 31.2763 136.117 28.8531 136.117 25.8639C136.117 22.8748 133.702 20.4515 130.723 20.4515C127.744 20.4515 125.329 22.8748 125.329 25.8639C125.329 28.8531 127.744 31.2763 130.723 31.2763Z" fill="#9E616A"/>
<path d="M136.451 27.4075L135.558 27.2491C135.058 27.158 134.598 26.9161 134.24 26.5557C133.881 26.1954 133.641 25.7337 133.55 25.2325L132.678 26.699L132.64 26.7117C130.562 27.4039 128.401 27.1968 126.032 26.0796C125.355 25.7574 124.699 25.394 124.066 24.9915L124.019 24.9623L124.015 24.9072C123.894 23.1465 124.288 21.6756 125.124 20.7654C125.445 20.4229 125.835 20.1524 126.267 19.9715C126.699 19.7906 127.165 19.7035 127.634 19.7158C127.667 19.7071 127.698 19.6901 127.723 19.6664C127.735 19.6576 127.747 19.6488 127.759 19.6404V19.6314L127.821 19.6021C127.954 19.5393 128.089 19.4792 128.225 19.4242C129.292 19.0096 130.455 18.9056 131.578 19.1242C132.702 19.3427 133.741 19.8749 134.577 20.6596C136.239 22.2512 137.001 24.9222 136.474 27.3063L136.451 27.4075Z" fill="#2F2E41"/>
<path d="M147.829 32.0188C145.993 31.0682 148.354 27.6179 147.88 25.6006C147.405 23.5833 143.989 22.9345 143.772 20.8733C143.554 18.8122 143.042 16.6863 141.686 15.1223C140.82 14.1229 139.544 13.3851 138.23 13.5103C137.785 13.5526 137.355 13.6906 136.968 13.9149C136.581 14.1391 136.247 14.4444 135.989 14.8098C135.73 15.1752 135.554 15.5923 135.47 16.0325C135.387 16.4728 135.399 16.9259 135.506 17.361C135.132 16.829 134.163 16.9443 133.924 17.5494C133.711 18.0873 134.181 18.7388 134.735 18.7864C135.46 19.6846 136.29 20.6378 137.426 20.819C137.607 20.8606 137.795 20.8605 137.976 20.8186C138.157 20.7768 138.326 20.6942 138.47 20.5771C138.737 20.3197 138.758 19.805 138.441 19.6127C139.868 20.1815 140.705 21.7297 140.917 23.2557C141.128 24.7818 140.835 26.3258 140.642 27.8544C140.449 29.3829 140.366 30.9908 140.963 32.4103C141.669 34.0873 143.294 35.2893 145.067 35.6748C146.841 36.0603 148.729 35.6836 150.334 34.8348C151.939 33.9859 153.278 32.6901 154.371 31.2373C152.488 32.5792 149.882 33.0819 147.829 32.0188Z" fill="#2F2E41"/>
<path d="M136.222 27.257C136.222 27.257 134.624 21.2724 127.774 19.8911C127.766 19.8885 127.741 19.8782 127.707 19.8627C127.687 19.8498 127.661 19.8369 127.635 19.824C127.712 19.7801 127.787 19.7414 127.864 19.7026C127.865 19.7026 127.865 19.7026 127.865 19.7024C127.866 19.7023 127.866 19.7021 127.866 19.7019C127.866 19.7016 127.867 19.7014 127.867 19.701C127.867 19.7007 127.867 19.7004 127.867 19.7C127.934 19.6381 128.001 19.5761 128.07 19.5167L128.266 19.5245C128.266 19.5245 135.139 18.4324 136.222 27.257Z" fill="#FD6584"/>
<path opacity="0.2" d="M132.644 46.4601L128.775 50.9573L122.383 49.0633L129.352 52.2855L132.644 46.4601Z" fill="black"/>
<path d="M155.865 128.433L96.3845 128.5C96.3165 128.5 96.2514 128.473 96.2034 128.424C96.1554 128.376 96.1284 128.311 96.1284 128.242C96.1284 128.174 96.1554 128.109 96.2034 128.06C96.2514 128.012 96.3165 127.985 96.3845 127.985L155.865 127.918C155.933 127.918 155.999 127.945 156.047 127.994C156.095 128.042 156.122 128.107 156.122 128.176C156.122 128.244 156.095 128.31 156.047 128.358C155.999 128.406 155.933 128.433 155.865 128.433Z" fill="#CACACA"/>
<path d="M158.476 88.3856C155.691 88.3856 152.638 88.28 149.318 88.0688C132.145 86.9746 109.9 83.1704 86.6823 77.3572C63.4644 71.5441 42.0465 64.4161 26.3744 57.2869C18.7401 53.8139 12.8808 50.5264 8.95943 47.5157C4.80775 44.3283 2.99175 41.55 3.56166 39.2583C4.6721 34.7936 14.5046 33.8168 22.5575 33.7836L22.5602 34.4329C11.5015 34.4785 4.97733 36.2481 4.18961 39.4155C3.18618 43.4498 11.3697 49.748 26.6416 56.6955C42.2793 63.8091 63.6578 70.9233 86.8391 76.7274C110.02 82.5312 132.224 86.3289 149.359 87.4207C166.093 88.4872 176.267 86.785 177.27 82.7506C178.103 79.401 172.611 74.4667 161.806 68.8563L162.104 68.2797C169.955 72.3563 179.068 78.2033 177.898 82.9079C177.328 85.1996 174.424 86.796 169.266 87.6526C166.326 88.1408 162.715 88.3856 158.476 88.3856Z" fill="#6C63FF"/>
</g>
<defs>
<clipPath id="clip0_13_138">
<rect width="178" height="128" fill="white" transform="translate(0 0.5)"/>
</clipPath>
</defs>
</svg>
