<?xml version="1.0" encoding="UTF-8" standalone="no"?>
<!-- Created with Inkscape (http://www.inkscape.org/) -->

<svg
   width="224.53525mm"
   height="35.477474mm"
   viewBox="0 0 224.53525 35.477474"
   version="1.1"
   id="svg5"
   xml:space="preserve"
   xmlns="http://www.w3.org/2000/svg"
   xmlns:svg="http://www.w3.org/2000/svg"><defs
     id="defs2" /><g
     id="layer1"
     transform="translate(8.9787077,-144.726)"><g
       id="g4178"><path
         style="fill:#66cc00;fill-opacity:1;stroke:#99dc57;stroke-width:0.27565;stroke-dasharray:none;stroke-opacity:1"
         d="m 12.004456,154.30924 c 0.465769,0.33944 2.896953,-1.04858 2.988301,-2.2489 0.195903,-2.57417 -1.61834,-6.92915 -5.4472852,-7.15263 -4.8591688,-0.28361 -16.8739702,10.71948 -18.1788116,17.7992 -0.718326,3.89745 0.5421932,6.39017 1.9417035,7.74861 6.61138459,6.41739 18.1606483,1.74526 18.1606483,1.74526 0,0 -0.601549,6.51981 -0.134628,7.09009 0.884452,1.08022 4.813385,1.07651 5.784769,-0.3004 0.549179,-0.77844 -0.256348,-6.05163 -0.108417,-7.75912 0.08923,-1.0299 2.87602,-5.09693 2.650368,-7.84924 -0.169361,-2.06571 0.278694,-4.81265 -2.922182,-5.48849 -0.97944,-0.2068 -13.0497907,1.0872 -15.4228051,3.31754 -1.22004345,1.14669 -0.83935036,3.79633 0.4747511,5.00053 1.6128019,1.47793 10.108863,-1.67264 10.265207,-0.92767 1.087784,5.18326 -13.2289354,4.45714 -15.7922931,1.74616 -0.7308633,-0.77295 -0.4707538,-2.75888 -0.1475175,-3.69233 1.4458894,-4.17549 8.1834331,-12.01045 12.8154512,-12.67502 1.4915284,-0.21399 1.2729664,2.3348 3.0727404,3.64641 z"
         id="path271" /><path
         id="path369"
         style="fill:#66cc00;fill-opacity:1;stroke:#99dc57;stroke-width:0.270862;stroke-dasharray:none;stroke-opacity:1"
         d="m 29.231807,145.31723 c -1.056517,0.0118 -2.117469,0.19492 -3.078881,0.50281 -1.067326,0.34181 -2.070352,1.13137 -2.618445,2.10892 -0.665372,1.18672 -0.828025,2.7207 -0.526066,4.04729 0.152252,0.6689 0.978939,1.05465 1.122412,1.72548 0.329287,1.53962 -0.110359,3.3845 -0.730705,4.66638 -0.346573,0.71616 -1.598451,0.14004 -2.145089,1.04697 -0.617217,1.02401 -0.811501,2.38831 -0.522965,3.54862 0.08923,0.35883 0.534459,0.54456 0.656807,0.89348 1.014253,2.89252 -0.842992,6.37512 0.374654,9.18807 0.924615,1.55588 4.108706,3.33734 4.966622,1.02423 0.772871,-2.38024 -0.741815,-5.56297 -0.343648,-7.4998 0.09488,-0.46155 0.915328,-0.44365 1.37356,-0.33383 3.541106,0.84863 4.894568,5.80165 8.292517,7.11068 0.746781,0.28768 1.67646,0.40628 2.399853,0.0641 1.102202,-0.5215 1.84208,-1.73794 2.243791,-2.88923 0.20628,-0.59117 0.293704,-1.31419 0.02119,-1.87792 -1.084892,-2.24422 -5.224253,-3.88755 -5.911784,-4.58008 -0.43528,-0.43845 0.115839,-1.24147 0.313676,-1.82676 0.522195,-1.54489 1.538888,-1.42489 2.266529,-4.33514 0.377436,-1.50958 0.631844,-3.16033 0.226859,-4.66276 -0.725474,-2.6914 -1.773203,-5.40453 -4.549076,-7.01663 -1.122393,-0.65183 -2.473427,-0.92007 -3.831808,-0.90485 z m 0.594279,6.31899 c 0.892206,-0.0178 2.821508,1.33766 2.252059,3.78272 -0.568135,2.4394 -2.375153,3.80866 -3.69073,3.30626 -0.612642,-0.23397 0.617111,-5.63175 1.029911,-6.85385 0.05198,-0.15389 0.202867,-0.23101 0.40876,-0.23513 z" /><path
         style="fill:#66cc00;fill-opacity:1;stroke:#99dc57;stroke-width:0.27565;stroke-dasharray:none;stroke-opacity:1"
         d="m 55.031212,167.6394 c 1.386301,1.5041 1.430633,5.06033 0.01429,6.13654 -2.781813,2.11378 -9.568766,0.23046 -12.578519,-2.83814 -0.964089,-0.98294 -1.371404,-3.56583 -1.313778,-5.4258 0.08695,-2.80641 1.076798,-4.60418 2.485284,-8.04828 0.458436,-1.12099 -1.592474,-1.95237 -1.827048,-3.14055 -0.218743,-1.10799 0.241387,-2.38318 0.462949,-3.35636 0.519633,-2.28242 14.53169,-5.89592 17.194458,-4.651 1.40829,0.65842 3.147664,3.95004 2.576502,5.27148 -1.069561,2.47454 -8.768659,1.18885 -12.280025,3.83452 -0.753799,0.56796 -0.986342,1.68127 -0.452357,2.21126 1.373074,1.36282 6.860006,-0.9709 8.702889,-0.13258 0.988805,0.44981 1.601236,4.81904 0.720817,5.70364 -1.726922,1.73512 -10.67022,-0.1168 -11.892686,2.41561 -0.305351,0.63256 0.03716,1.33511 0.03716,1.33511 2.825738,2.70804 6.302415,-1.32011 8.150067,0.68455 z"
         id="path402" /><path
         style="fill:#66cc00;fill-opacity:1;stroke:#99dc57;stroke-width:0.27565;stroke-dasharray:none;stroke-opacity:1"
         d="m 79.616029,146.01584 c 1.891351,-0.007 3.995264,4.38381 2.99641,5.63167 -1.92414,2.40382 -8.882934,0.56662 -11.402405,1.78124 -1.296111,0.62485 -3.262138,2.92102 -2.176272,4.01941 1.793393,1.81409 6.164018,-2.68708 8.372155,-1.37459 1.359123,0.80785 2.450516,4.2579 1.815362,5.38157 -1.484239,2.62582 -10.66111,1.98862 -12.971568,3.30388 -0.63345,0.3606 -0.709674,1.75974 -0.114625,2.18368 2.698029,1.92224 6.245332,-0.045 7.944903,-0.80704 1.546031,-0.69321 3.379357,4.70341 1.950552,6.26935 -2.871134,3.14671 -9.846676,2.51401 -12.66449,0.3477 -1.515731,-1.16528 -2.772047,-3.52268 -2.980274,-5.63829 -0.45795,-4.65282 3.261421,-16.9981 4.915948,-17.77073 3.894585,-1.81867 9.604781,-3.31157 14.314304,-3.32785 z"
         id="path404" /><path
         style="fill:#66cc00;fill-opacity:1;stroke:#99dc57;stroke-width:0.27565;stroke-dasharray:none;stroke-opacity:1"
         d="m 146.23428,144.86383 c 1.89137,0 3.05459,5.42801 2.05573,6.67587 -1.92414,2.40382 -11.54952,2.21121 -14.06899,3.42583 -1.29611,0.62485 -2.71212,2.21111 -1.62625,3.3095 1.79339,1.81409 7.89882,-2.23963 9.64763,-1.20455 1.36063,0.80532 1.89207,4.74741 1.07379,5.74565 -1.75919,2.1461 -12.31527,1.62063 -14.28793,2.70676 -0.63851,0.35156 -0.25962,2.09001 0.34955,2.49339 2.4107,1.5963 6.7896,-0.34736 8.48917,-1.1094 1.54604,-0.69321 2.63644,4.3952 1.20764,5.96114 -2.87114,3.14671 -9.16631,3.00961 -12.18769,1.13767 -2.33202,-1.44483 -3.99875,-5.16568 -3.84404,-7.28588 0.53733,-7.36395 6.74331,-17.30996 8.04058,-18.20063 2.39133,-1.64183 12.47438,-3.65535 15.1508,-3.65535 z"
         id="path404-3" /><path
         style="fill:#66cc00;fill-opacity:1;stroke:#99dc57;stroke-width:0.27565;stroke-dasharray:none;stroke-opacity:1"
         d="m 86.726117,173.18065 c -0.513042,1.30248 -3.754481,0.14823 -4.647245,-1.17713 -2.160469,-3.20735 1.356547,-10.96116 1.515072,-13.38413 0.253208,-3.87016 -0.980678,-9.54914 0.260991,-11.4458 1.442411,-2.2033 4.129531,-1.53516 5.529216,-0.33101 1.086573,0.93477 0.113146,4.30693 0.883102,6.26536 0.519675,1.48053 3.778668,7.13591 4.892267,6.54694 2.720869,-1.96667 -0.410848,-11.69184 2.18325,-13.12636 1.098252,-0.60732 3.24159,0.008 3.39072,0.95497 0.93278,5.92464 0.80121,22.09223 -0.13614,26.92859 -0.31445,1.62245 -3.861052,1.07499 -4.95524,-0.16356 -1.218902,-1.37971 -0.679287,-3.23187 -1.442699,-4.72529 -1.297457,-2.53812 -3.493575,-6.83536 -5.123574,-6.95975 -2.118226,0.8268 -1.17814,8.04906 -2.34972,10.61717 z"
         id="path406" /><path
         id="path408"
         style="fill:#66cc00;fill-opacity:1;stroke:#99dc57;stroke-width:0.27565;stroke-dasharray:none;stroke-opacity:1"
         d="m 116.38979,145.49551 c -2.26143,0.004 -4.49036,0.23303 -6.00893,0.38809 -3.17391,0.32409 -7.35696,0.57135 -8.97723,3.3197 -0.67284,1.14126 -0.28358,3.31101 0.59893,3.92947 2.55628,1.79144 6.38658,-2.28534 7.15047,-0.76016 0.29419,0.58738 0.72873,3.09213 -0.15245,4.16719 -0.48286,0.5891 -1.54419,-0.22782 -2.2226,0.5302 -1.08201,1.20897 -1.25888,3.16399 -0.78858,4.98729 0.47193,1.82965 2.41041,1.10288 2.72644,2.71973 0.32018,1.63799 -1.90192,7.06833 0.30386,9.20254 1.04404,1.09494 3.75384,1.48212 4.53513,0.18655 1.30744,-2.16807 0.16918,-8.7395 1.45107,-10.68307 1.68362,-2.55264 6.32764,-0.77924 10.23969,-6.19962 2.11471,-2.93006 2.07872,-7.01724 -1.41491,-10.05933 -1.57241,-1.36918 -4.53333,-1.73421 -7.44089,-1.72858 z m -0.23771,5.86321 c 1.69672,0.005 3.75571,0.39949 3.86902,1.80041 0.15579,1.92617 -4.06642,3.5104 -5.17333,2.61689 -0.47571,-0.38387 -0.46664,-4.25297 -0.46664,-4.25297 0,0 -0.12527,3.7e-4 0.28061,-0.0625 0.39968,-0.0619 0.92477,-0.10349 1.49034,-0.1018 z" /><path
         id="path497"
         style="fill:#66cc00;fill-opacity:1;stroke:#99dc57;stroke-width:0.27565;stroke-dasharray:none;stroke-opacity:1"
         d="m 157.63379,145.53789 c -0.53295,0.004 -1.08176,0.17202 -1.47433,0.46508 -5.76653,4.30488 -10.34066,16.25261 -13.64878,22.51698 -0.55794,1.0566 -0.53409,2.55544 0.0744,3.58376 0.71301,1.20491 2.28309,2.44571 3.63905,2.09703 2.59362,-0.66693 2.24984,-6.09995 4.16254,-6.87142 2.1275,-0.85812 5.28692,-1.61544 6.45438,-0.71055 1.40319,1.0876 -0.51844,5.10617 1.49345,6.85074 1.13869,0.98739 4.27483,1.83917 4.46485,0.35812 0.33809,-2.63544 0.58626,-10.15503 0.0553,-15.20269 -0.4519,-4.296 -0.3982,-10.25041 -4.08709,-12.77803 -0.31432,-0.21537 -0.71926,-0.31193 -1.13378,-0.30902 z m -0.95343,7.76903 c 0.0105,2e-5 0.0211,2.6e-4 0.0315,0.001 1.10661,0.0823 1.39418,3.94487 0.75965,5.20692 -0.63242,1.25784 -2.82459,1.17717 -3.87625,0.92346 -0.32857,-0.0793 1.75072,-6.1337 3.08508,-6.13141 z" /><path
         style="fill:#66cc00;fill-opacity:1;stroke:#99dc57;stroke-width:0.27565;stroke-dasharray:none;stroke-opacity:1"
         d="m 177.8313,157.40827 c 1.01667,1.91073 3.78205,2.97584 5.4297,1.65583 2.82087,-2.25993 2.29664,-9.50037 -1.47895,-10.83637 -4.68022,-1.65612 -15.02615,2.88782 -18.11929,9.65933 -1.12071,2.45345 -1.12847,5.42334 -0.0377,7.77392 1.64321,3.54107 6.14448,6.31758 8.97981,7.51776 2.96642,1.25567 4.84423,2.18017 9.62272,0.88901 4.10838,-1.11008 3.29848,-11.59414 -0.63717,-8.25577 -2.07329,1.75863 -9.98313,1.5857 -12.0793,-2.91264 -0.63705,-1.36711 -0.53629,-3.15791 0.21712,-4.42996 1.68587,-2.84642 6.98832,-6.33908 8.45932,-5.19021 0.82122,0.64138 -0.8737,3.15665 -0.35627,4.1291 z"
         id="path501" /><path
         style="fill:#66cc00;fill-opacity:1;stroke:#99dc57;stroke-width:0.27565;stroke-dasharray:none;stroke-opacity:1"
         d="m 212.29103,145.94025 c 2.59094,0.7936 4.42023,6.34061 1.98045,6.97955 -3.19907,0.83778 -15.22556,-0.5782 -19.49605,1.87041 -1.13005,0.64795 -1.39023,2.29565 -0.33146,2.99291 1.87102,1.23217 7.08387,-1.46029 8.54332,-0.53102 1.74687,1.11229 2.54976,4.63266 0.96164,6.59049 -1.30677,1.61098 -10.98516,-0.89379 -12.58417,1.21054 -0.26138,0.34399 -0.1408,0.75757 0.26899,1.26787 2.23369,2.78158 8.85141,-1.77313 10.63827,0.19521 1.22755,1.35224 0.92597,4.1652 -0.0824,5.47834 -2.61544,3.406 -8.77569,2.50986 -12.83517,1.10917 -1.8553,-0.64016 -3.80715,-2.11809 -4.3053,-4.01646 -1.24529,-4.74561 1.44985,-9.50966 3.10115,-13.48382 0.72486,-1.74451 0.0602,-5.09975 1.63596,-5.77131 6.54431,-2.78915 16.56764,-3.89188 22.50475,-3.89188 0,0 1e-5,0 2e-5,0 z"
         id="path503" /></g></g></svg>
