<svg width="212" height="319" viewBox="0 0 212 319" fill="none" xmlns="http://www.w3.org/2000/svg">
<g clip-path="url(#clip0_4_12)">
<path d="M170.243 307.902C161.77 325.315 65.7216 321.74 53.2963 300.666C50.4523 295.843 66.3731 191.096 66.4535 179.231C66.5101 170.89 -6.11067 106.673 0.414837 96.5223C5.12313 89.1984 45.8582 38.7861 48.3924 38.6898C59.5694 38.2651 114.469 59.6809 117.552 66.6663C120.914 74.2843 111.58 91.0976 105.688 91.8918C98.9927 92.7941 69.2944 76.1938 67.738 78.262C62.007 85.8776 59.5058 100.646 61.8751 100.698C68.0198 100.835 147.396 139.757 157.743 140.592C166.321 141.285 192.577 111.05 195.043 113.134C202.289 119.255 190.192 178.421 168.182 188.971C164.873 190.556 173.657 300.885 170.243 307.902Z" fill="#66CC00"/>
<path d="M56.9575 35.9402C56.1838 34.8794 78.4922 1.18381 85.2868 0.0847488C92.4921 -1.08074 111.863 10.0742 115.434 15.1361C118.037 18.826 96.6398 44.9018 94.7891 45.6475C91.9517 46.7909 60.1374 40.2999 56.9575 35.9402Z" fill="#66CC00"/>
<path d="M123.607 20.1079C126.661 18.924 149.945 34.7832 151.741 40.3432C153.416 45.5306 126.659 75.3506 123.258 76.9696C118.658 79.159 131.423 59.1077 102.153 53.0973C98.0661 52.258 116.484 22.8689 123.607 20.1079Z" fill="#66CC00"/>
<path d="M157.948 47.3362C150.618 52.5936 116.732 96.0879 111.026 104.636C107.873 109.358 117.677 113.639 117.677 113.639C117.677 113.639 130.68 116.862 139.683 114.276C143.688 113.126 181.031 76.31 184.549 67.2707C186.096 63.294 163.092 43.647 157.948 47.3362Z" fill="#66CC00"/>
<path d="M189.609 73.7171C194.265 70.2794 213.185 88.4078 211.941 91.9543C209.73 98.2609 172.641 126.701 166.004 129.093C161.956 130.551 147.375 121.44 148.7 114.903C150.326 106.884 186.254 76.1938 189.609 73.7171Z" fill="#66CC00"/>
</g>
<defs>
<clipPath id="clip0_4_12">
<rect width="212" height="319" fill="white"/>
</clipPath>
</defs>
</svg>
