<svg width="178" height="119" viewBox="0 0 178 119" fill="none" xmlns="http://www.w3.org/2000/svg">
<g clip-path="url(#clip0_13_2)">
<path d="M51.4366 57.5967C66.8876 57.5967 79.4131 45.0712 79.4131 29.6202C79.4131 14.1692 66.8876 1.64367 51.4366 1.64367C35.9856 1.64367 23.4601 14.1692 23.4601 29.6202C23.4601 45.0712 35.9856 57.5967 51.4366 57.5967Z" fill="#50A7F6"/>
<path d="M120.69 9.26519C120.502 8.52576 119.889 7.97254 119.25 7.55566C118.611 7.13878 117.907 6.80373 117.361 6.27036C116.816 5.73702 116.449 4.926 116.702 4.20623C117.01 3.33145 118.036 2.98188 118.933 2.74603C110.724 1.8635 102.474 1.40329 94.2174 1.36722C94.0314 1.115 93.7704 0.928019 93.4718 0.832983C93.1732 0.737947 92.8521 0.739717 92.5546 0.838041C92.257 0.936365 91.9981 1.12621 91.8149 1.38047C91.6316 1.63472 91.5334 1.94038 91.5343 2.25377V28.7898H94.5159V12.4892C101.598 12.5063 108.68 12.5235 115.762 12.5406C116.909 12.5434 118.102 12.5361 119.133 12.0339C120.164 11.5318 120.973 10.3764 120.69 9.26519Z" fill="#50A7F7"/>
<path d="M137.152 56.8166V47.8719H144.01C145.224 47.8719 146.426 47.6328 147.547 47.1683C148.669 46.7038 149.687 46.023 150.546 45.1647C151.404 44.3064 152.085 43.2875 152.549 42.1661C153.014 41.0447 153.253 39.8428 153.253 38.629V38.629H101.075C101.075 37.5219 101.515 36.4602 102.298 35.6774C103.081 34.8946 104.142 34.4548 105.25 34.4548H141.625V33.4171C141.625 29.8735 139.172 27.0008 136.146 27.0008H90.8114C83.8291 27.0008 77.4499 31.4981 74.1594 38.629H66.8587C66.2392 38.6289 65.644 38.87 65.1991 39.3011L60.5824 43.7734C60.2413 44.1039 60.0066 44.5287 59.9084 44.9934C59.8101 45.4582 59.8529 45.9416 60.0312 46.3819C60.2095 46.8222 60.5152 47.1992 60.909 47.4646C61.3029 47.7301 61.7671 47.8719 62.2421 47.8719H67.9799V56.8166H41.6206C41.2838 56.8166 40.9507 56.8879 40.6434 57.0259C40.3362 57.1639 40.0616 57.3654 39.8378 57.6172L34.5372 63.5803C34.2317 63.924 34.0321 64.3486 33.9623 64.8031C33.8926 65.2577 33.9557 65.7226 34.1441 66.1421C34.3324 66.5616 34.6381 66.9177 35.0241 67.1675C35.4102 67.4173 35.8602 67.5502 36.32 67.5503H52.7133C53.1177 67.5502 53.5155 67.6531 53.8692 67.8491C54.2229 68.0451 54.521 68.3278 54.7355 68.6707L57.6122 73.2702C57.8297 73.618 57.9539 74.016 57.9727 74.4258C57.9914 74.8356 57.9042 75.2434 57.7194 75.6096C57.5346 75.9759 57.2585 76.2882 56.9177 76.5166C56.5769 76.745 56.1829 76.8816 55.7739 76.9132L20.2182 79.6637C19.7853 79.6972 19.3698 79.8483 19.0165 80.1005C18.6631 80.3527 18.3853 80.6967 18.2129 81.0952L10.6837 98.5064C10.5268 98.8693 10.4625 99.2655 10.4967 99.6594C10.5309 100.053 10.6625 100.432 10.8796 100.763C11.0967 101.093 11.3926 101.365 11.7405 101.552C12.0885 101.74 12.4777 101.838 12.873 101.838H131.676C134.586 101.839 137.49 101.575 140.352 101.047C161.562 97.1337 176.807 78.385 176.807 56.8166V56.8166H137.152ZM76.9246 47.8719H128.208V56.8166H76.9246V47.8719ZM151.464 66.954C151.464 68.2069 151.217 69.4476 150.738 70.6052C150.258 71.7627 149.555 72.8145 148.669 73.7005C147.784 74.5865 146.732 75.2892 145.574 75.7687C144.417 76.2482 143.176 76.495 141.923 76.495H64.9983V76.495C64.9983 73.9645 66.0035 71.5377 67.7928 69.7484C69.5821 67.9592 72.0089 66.9539 74.5393 66.9539H151.464V66.954Z" fill="#66CC00"/>
<path d="M138.941 71.7245H75.1357C74.7404 71.7249 74.3615 71.8821 74.0821 72.1616C73.8026 72.4411 73.6454 72.82 73.6449 73.2152V76.7931H140.432V73.2152C140.432 72.82 140.274 72.4411 139.995 72.1616C139.716 71.8821 139.337 71.7249 138.941 71.7245ZM87.6583 72.3208H94.6944V76.1968H87.6583V72.3208ZM87.062 76.1968H80.0259V72.3208H87.062V76.1968ZM95.2907 72.3208H102.327V76.1968H95.2907V72.3208ZM102.923 72.3208H109.959V76.1968H102.923V72.3208ZM110.555 72.3208H117.591V76.1968H110.555V72.3208ZM118.188 72.3208H125.224V76.1968H118.188V72.3208ZM125.82 72.3208H132.856V76.1968H125.82V72.3208ZM74.2412 73.2152C74.2415 72.9781 74.3358 72.7507 74.5035 72.583C74.6712 72.4154 74.8985 72.321 75.1357 72.3208H79.4296V76.1968H74.2412V73.2152ZM139.836 76.1968H133.453V72.3208H138.941C139.179 72.321 139.406 72.4154 139.574 72.583C139.741 72.7507 139.836 72.9781 139.836 73.2152V76.1968Z" fill="#3F3D56"/>
<path d="M134.767 29.6843H130.891V45.7848H134.767V29.6843Z" fill="#3F3D56"/>
<path d="M63.5075 102.733H0.89447C0.657241 102.733 0.429729 102.639 0.261983 102.471C0.0942367 102.303 0 102.076 0 101.838C0 101.601 0.0942367 101.374 0.261983 101.206C0.429729 101.038 0.657241 100.944 0.89447 100.944H63.5075C63.7448 100.944 63.9723 101.038 64.14 101.206C64.3078 101.374 64.402 101.601 64.402 101.838C64.402 102.076 64.3078 102.303 64.14 102.471C63.9723 102.639 63.7448 102.733 63.5075 102.733Z" fill="#CCCCCC"/>
<path d="M35.7789 108.1H9.83918C9.60195 108.1 9.37443 108.005 9.20669 107.838C9.03894 107.67 8.9447 107.442 8.9447 107.205C8.9447 106.968 9.03894 106.74 9.20669 106.573C9.37443 106.405 9.60195 106.311 9.83918 106.311H35.7789C36.0161 106.311 36.2436 106.405 36.4114 106.573C36.5791 106.74 36.6733 106.968 36.6733 107.205C36.6733 107.442 36.5791 107.67 36.4114 107.838C36.2436 108.005 36.0161 108.1 35.7789 108.1Z" fill="#CCCCCC"/>
<path d="M150.271 102.733H87.6583C87.421 102.733 87.1935 102.639 87.0258 102.471C86.858 102.303 86.7638 102.076 86.7638 101.838C86.7638 101.601 86.858 101.374 87.0258 101.206C87.1935 101.038 87.421 100.944 87.6583 100.944H150.271C150.509 100.944 150.736 101.038 150.904 101.206C151.072 101.374 151.166 101.601 151.166 101.838C151.166 102.076 151.072 102.303 150.904 102.471C150.736 102.639 150.509 102.733 150.271 102.733Z" fill="#CCCCCC"/>
<path d="M111.809 108.1H49.196C48.9588 108.1 48.7312 108.005 48.5635 107.838C48.3958 107.67 48.3015 107.442 48.3015 107.205C48.3015 106.968 48.3958 106.74 48.5635 106.573C48.7312 106.405 48.9588 106.311 49.196 106.311H111.809C112.046 106.311 112.274 106.405 112.442 106.573C112.609 106.74 112.704 106.968 112.704 107.205C112.704 107.442 112.609 107.67 112.442 107.838C112.274 108.005 112.046 108.1 111.809 108.1Z" fill="#CCCCCC"/>
<path d="M63.5076 112.87H0.894525C0.657541 112.87 0.430393 112.775 0.262952 112.608C0.0955119 112.44 0.00146484 112.213 0.00146484 111.976C0.00146484 111.739 0.0955119 111.511 0.262952 111.344C0.430393 111.176 0.657541 111.082 0.894525 111.081H63.5076C63.7446 111.082 63.9717 111.176 64.1392 111.344C64.3066 111.511 64.4007 111.739 64.4007 111.976C64.4007 112.213 64.3066 112.44 64.1392 112.608C63.9717 112.775 63.7446 112.87 63.5076 112.87Z" fill="#CCCCCC"/>
<path d="M101.075 118.237H75.1357C74.8985 118.237 74.6709 118.143 74.5032 117.975C74.3354 117.807 74.2412 117.58 74.2412 117.343C74.2412 117.105 74.3354 116.878 74.5032 116.71C74.6709 116.542 74.8985 116.448 75.1357 116.448H101.075C101.313 116.448 101.54 116.542 101.708 116.71C101.876 116.878 101.97 117.105 101.97 117.343C101.97 117.58 101.876 117.807 101.708 117.975C101.54 118.143 101.313 118.237 101.075 118.237Z" fill="#CCCCCC"/>
<path d="M45.0218 118.237H19.0821C18.8449 118.237 18.6174 118.143 18.4496 117.975C18.2819 117.807 18.1876 117.58 18.1876 117.343C18.1876 117.105 18.2819 116.878 18.4496 116.71C18.6174 116.542 18.8449 116.448 19.0821 116.448H45.0218C45.259 116.448 45.4865 116.542 45.6543 116.71C45.822 116.878 45.9163 117.105 45.9163 117.343C45.9163 117.58 45.822 117.807 45.6543 117.975C45.4865 118.143 45.259 118.237 45.0218 118.237Z" fill="#CCCCCC"/>
<path d="M150.271 112.87H87.6583C87.421 112.87 87.1935 112.776 87.0258 112.608C86.858 112.44 86.7638 112.213 86.7638 111.976C86.7638 111.738 86.858 111.511 87.0258 111.343C87.1935 111.175 87.421 111.081 87.6583 111.081H150.271C150.508 111.082 150.735 111.176 150.903 111.344C151.07 111.511 151.164 111.739 151.164 111.976C151.164 112.213 151.07 112.44 150.903 112.608C150.735 112.775 150.508 112.87 150.271 112.87Z" fill="#CCCCCC"/>
<path d="M177.106 118.237H114.492C114.255 118.237 114.028 118.143 113.86 117.975C113.692 117.807 113.598 117.58 113.598 117.343C113.598 117.105 113.692 116.878 113.86 116.71C114.028 116.542 114.255 116.448 114.492 116.448H177.106C177.343 116.448 177.57 116.542 177.738 116.71C177.906 116.878 178 117.105 178 117.343C178 117.58 177.906 117.807 177.738 117.975C177.57 118.143 177.343 118.237 177.106 118.237Z" fill="#CCCCCC"/>
</g>
<defs>
<clipPath id="clip0_13_2">
<rect width="178" height="117.474" fill="white" transform="translate(0 0.762985)"/>
</clipPath>
</defs>
</svg>
