<svg width="178" height="127" viewBox="0 0 178 127" fill="none" xmlns="http://www.w3.org/2000/svg">
<g clip-path="url(#clip0_13_17)">
<path d="M18.4106 123.401L21.3648 123.4L22.7703 112.005L18.4099 112.005L18.4106 123.401Z" fill="#FFB6B6"/>
<path d="M18.3064 126.483L27.3916 126.482V126.367C27.3916 125.43 27.019 124.53 26.3558 123.867C25.6927 123.204 24.7933 122.831 23.8554 122.831H23.8552L22.1957 121.572L19.0994 122.831L18.3063 122.831L18.3064 126.483Z" fill="black"/>
<path d="M23.1814 109.613L25.5073 111.435L33.6412 103.331L30.2084 100.642L23.1814 109.613Z" fill="#FFB6B6"/>
<path d="M21.1989 111.975L28.3511 117.578L28.422 117.487C29.0003 116.749 29.2616 115.811 29.1485 114.88C29.0354 113.949 28.5571 113.101 27.8189 112.523L27.8187 112.523L27.2887 110.508L24.0747 109.59L23.4503 109.101L21.1989 111.975Z" fill="black"/>
<path d="M37.0908 57.6899C37.0908 57.6899 41.0119 61.7563 39.2692 71.196L40.7322 87.359L41.1098 88.1072C41.3348 88.5531 41.4134 89.0586 41.3343 89.5517C41.2553 90.0449 41.0226 90.5005 40.6694 90.8536L40.3584 91.8182L40.0679 93.7061L29.2486 109.971L25.1096 105.615L31.79 90.3659L29.9747 86.4448L25.7631 72.7935L22.8586 97.7724L23.4395 119.266H17.8803L14.4355 95.3036L10.8048 61.6111L12.6933 57.6899H37.0908Z" fill="black"/>
<path d="M11.7103 64.677L11.6707 64.6214C9.55471 61.6589 12.7372 54.5402 13.2172 53.5083C12.6472 53.3233 12.159 52.9465 11.8356 52.442C11.5123 51.9375 11.3738 51.3365 11.4438 50.7413L11.6507 48.9824L11.8664 47.2572L10.3213 45.712L10.3169 45.6735L9.4277 37.8929L8.13481 32.7251C7.64767 30.7714 7.68919 28.7234 8.2551 26.7911C8.82102 24.8588 9.89095 23.112 11.3551 21.7298L14.3436 21.2553L17.9755 17.7558H23.8325L25.8407 19.6745C29.5896 20.332 30.2337 20.1173 33.4539 23.9816L31.9907 35.9958L31.6256 37.6486L31.6267 39.8903L32.5547 40.9217C32.889 41.2932 33.1319 41.7376 33.2641 42.2196C33.3963 42.7016 33.4141 43.2078 33.3161 43.6978L33.194 44.308C34.1511 44.7182 35.0644 52.0077 35.2827 53.0259L35.6086 54.5469C35.8875 54.9148 37.7281 57.3691 37.7281 58.04C37.7281 58.1407 37.6537 58.2381 37.4942 58.3461C36.2398 59.1955 31.2389 65.2208 28.1704 63.9929C24.9018 62.686 11.9088 64.6466 11.7779 64.6666L11.7103 64.677Z" fill="#66CC00"/>
<path d="M10.9234 50.7065C10.9234 50.7065 12.4275 42.2062 10.9122 39.0094L4.90112 39.4388L5.81593 51.5655L11.0708 65.0298C10.9905 65.4446 11.0215 65.8733 11.1606 66.2723C11.2996 66.6713 11.5417 67.0264 11.8623 67.3015C12.183 67.5767 12.5707 67.7621 12.9862 67.839C13.4016 67.9159 13.83 67.8814 14.2279 67.7392C14.6258 67.597 14.9789 67.352 15.2515 67.0292C15.524 66.7063 15.7063 66.3171 15.7799 65.901C15.8534 65.485 15.8155 65.0568 15.6701 64.6601C15.5246 64.2634 15.2768 63.9123 14.9518 63.6423L10.9234 50.7065Z" fill="#FFB6B6"/>
<path d="M4.90107 34.5011L5.27309 30.4498C5.41311 28.925 5.85321 27.443 6.56807 26.0889C7.28294 24.7348 8.25846 23.5355 9.43853 22.5598C10.1717 21.9581 11.0586 21.5734 11.999 21.4492C12.9394 21.3251 13.8957 21.4665 14.76 21.8573C15.9279 22.3951 16.8482 23.3562 17.3345 24.5465C17.8209 25.7368 17.8372 27.0673 17.3801 28.2691C15.9908 31.9128 16.4925 35.7661 13.7834 36.2359L14.0777 37.6361L11.4141 46.3287L3.82764 45.4499L4.90107 34.5011Z" fill="#66CC00"/>
<path d="M44.9129 46.6776C44.9129 46.6776 40.5099 39.2527 37.2765 37.8173L32.9994 42.0628L41.6011 50.6596L54.3653 57.4402C54.575 57.807 54.878 58.1118 55.2436 58.3236C55.6092 58.5354 56.0243 58.6467 56.4468 58.6462C56.8694 58.6457 57.2842 58.5334 57.6493 58.3208C58.0144 58.1081 58.3167 57.8026 58.5256 57.4353C58.7345 57.0681 58.8424 56.6521 58.8385 56.2296C58.8346 55.8071 58.719 55.3931 58.5034 55.0297C58.2878 54.6664 57.9799 54.3665 57.611 54.1606C57.242 53.9547 56.8252 53.8501 56.4027 53.8574L44.9129 46.6776Z" fill="#FFB6B6"/>
<path d="M29.7794 38.3195L27.4195 35.0056C26.5313 33.7583 25.8984 32.3478 25.5574 30.8551C25.2163 29.3623 25.1737 27.8169 25.432 26.3077C25.5955 25.3734 26.017 24.5034 26.649 23.796C27.2809 23.0887 28.0981 22.5722 29.0082 22.3049C30.2443 21.9509 31.5687 22.0794 32.7137 22.6646C33.8586 23.2498 34.7386 24.2479 35.1758 25.4571C36.4987 29.1254 41.324 35.1544 39.5766 37.2771L40.7129 38.1468L42.4301 43.0388L36.1057 47.3199L29.7794 38.3195Z" fill="#66CC00"/>
<path d="M20.5087 16.0653C24.1011 16.0653 27.0133 13.1531 27.0133 9.56071C27.0133 5.96833 24.1011 3.05612 20.5087 3.05612C16.9164 3.05612 14.0042 5.96833 14.0042 9.56071C14.0042 13.1531 16.9164 16.0653 20.5087 16.0653Z" fill="#FFB6B6"/>
<path d="M15.7882 14.1455C15.7314 14.0957 15.6778 14.0425 15.6223 13.9913C15.6203 13.9966 15.62 14.002 15.6179 14.0072L15.7882 14.1455Z" fill="#2F2E41"/>
<path d="M25.8392 2.69185C25.516 2.17159 25.0684 1.74 24.5367 1.43602C24.1733 1.25975 23.7914 1.12444 23.3981 1.03258L22.3687 0.751721C21.8412 0.588514 21.2986 0.479251 20.7491 0.425616C19.986 0.387973 19.2273 0.560747 18.5558 0.925063C17.8842 1.28938 17.3257 1.83123 16.9413 2.49143C16.6303 3.04306 16.3808 3.73048 15.7805 3.9323C15.2965 4.09504 14.7685 3.86549 14.2598 3.91002C13.9617 3.95321 13.6789 4.06926 13.4364 4.24789C13.1939 4.42651 12.9992 4.6622 12.8696 4.93405C12.616 5.48113 12.4913 6.07903 12.5048 6.68183C12.4848 8.05042 12.7519 9.40799 13.2889 10.667C13.8259 11.926 14.6208 13.0585 15.6224 13.9913C15.7902 13.5488 15.5137 13.0711 15.2951 12.6477C15.074 12.2194 14.9373 11.6222 15.3077 11.3137C15.7199 10.9705 16.3803 11.3033 16.8678 11.0795C17.0237 10.9899 17.1551 10.8631 17.2501 10.7104C17.3451 10.5577 17.4008 10.3838 17.4122 10.2043C17.4594 9.84864 17.4102 9.4871 17.4325 9.12901C17.4546 8.77405 17.5468 8.42698 17.7038 8.10786C17.8608 7.78874 18.0795 7.50389 18.3472 7.26975C18.6149 7.03561 18.9264 6.85682 19.2635 6.74371C19.6007 6.63061 19.957 6.58542 20.3117 6.61076C21.4213 6.69002 22.4981 7.44823 23.5659 7.13631C24.0671 6.98989 24.4946 6.6171 25.013 6.5544C25.5871 6.48494 26.1272 6.80895 26.6147 7.12005C26.7918 6.36788 26.8144 5.58759 26.6811 4.82642C26.5478 4.06526 26.2614 3.33908 25.8392 2.69185Z" fill="#787530"/>
<path d="M48.3893 122.828L46.7341 120.168L46.4035 121.688C46.3455 121.954 46.2875 122.225 46.2339 122.493C45.7637 122.092 45.2635 121.72 44.7741 121.364C43.2713 120.273 41.7692 119.181 40.2678 118.088L40.738 120.814C41.0278 122.493 41.3305 124.206 42.0475 125.741C42.127 125.915 42.2129 126.087 42.3052 126.255H49.291C49.3472 126.099 49.3861 125.938 49.4069 125.774C49.4087 125.763 49.4093 125.752 49.409 125.741C49.5186 124.7 48.9432 123.719 48.3893 122.828Z" fill="#F0F0F0"/>
<path d="M169.488 119.956L166.486 115.131L165.886 117.888C165.781 118.371 165.676 118.861 165.578 119.348C164.726 118.62 163.818 117.946 162.93 117.3C160.205 115.322 157.48 113.341 154.757 111.357L155.609 116.303C156.135 119.348 156.684 122.456 157.985 125.24C158.129 125.555 158.285 125.867 158.452 126.171H171.124C171.226 125.888 171.296 125.596 171.334 125.298C171.337 125.279 171.338 125.259 171.338 125.24C171.536 123.351 170.493 121.572 169.488 119.956Z" fill="#F0F0F0"/>
<path d="M177.744 126.516L0.255612 126.582C0.187946 126.582 0.12312 126.555 0.0753419 126.507C0.027564 126.459 0.000732422 126.394 0.000732422 126.326C0.000732422 126.259 0.027564 126.194 0.0753419 126.146C0.12312 126.098 0.187946 126.071 0.255612 126.071L177.744 126.005C177.812 126.005 177.877 126.032 177.925 126.08C177.972 126.128 177.999 126.193 177.999 126.26C177.999 126.328 177.972 126.393 177.925 126.441C177.877 126.489 177.812 126.516 177.744 126.516Z" fill="#CACACA"/>
<path d="M55.6882 51.5764V113.195C55.6889 113.981 56.0011 114.734 56.5563 115.289C57.1116 115.844 57.8645 116.156 58.6497 116.157H149.963C150.748 116.156 151.501 115.844 152.056 115.289C152.611 114.734 152.924 113.981 152.924 113.195V51.5764C152.922 50.7918 152.61 50.04 152.055 49.4855C151.5 48.931 150.747 48.6191 149.963 48.6181H58.6497C57.8652 48.6192 57.113 48.931 56.5579 49.4855C56.0028 50.04 55.6901 50.7918 55.6882 51.5764Z" fill="#3F3D56"/>
<path d="M57.8303 52.3431V112.435C57.831 112.855 57.998 113.257 58.2947 113.554C58.5914 113.85 58.9935 114.017 59.4131 114.018H149.203C149.622 114.017 150.024 113.85 150.321 113.554C150.618 113.257 150.785 112.855 150.785 112.435V52.3431C150.785 51.923 150.619 51.5201 150.322 51.2228C150.025 50.9254 149.623 50.7579 149.203 50.757H59.4131C58.993 50.7579 58.5905 50.9254 58.2937 51.2228C57.997 51.5201 57.8304 51.923 57.8303 52.3431Z" fill="white"/>
<path d="M53.7784 125.213C53.9457 125.422 54.1583 125.592 54.4003 125.707C54.6423 125.823 54.9074 125.883 55.1757 125.881H152.951C153.218 125.881 153.482 125.821 153.723 125.706C153.965 125.591 154.177 125.423 154.346 125.215C154.514 125.008 154.634 124.765 154.697 124.505C154.76 124.245 154.764 123.975 154.709 123.713L153.191 116.504C153.129 116.21 152.993 115.936 152.797 115.708C152.602 115.48 152.352 115.304 152.071 115.197C151.868 115.117 151.651 115.076 151.433 115.076H56.6875C56.469 115.076 56.2524 115.117 56.049 115.197C55.7681 115.304 55.5185 115.48 55.3228 115.708C55.1271 115.936 54.9917 116.21 54.9288 116.504L53.411 123.713C53.357 123.975 53.362 124.245 53.4255 124.504C53.4891 124.764 53.6096 125.006 53.7784 125.213Z" fill="#2F2E41"/>
<path d="M147.832 118.182H150.634C150.691 118.182 150.738 118.135 150.738 118.077V116.48C150.738 116.422 150.691 116.375 150.634 116.375H147.832C147.774 116.375 147.727 116.422 147.727 116.48V118.077C147.727 118.135 147.774 118.182 147.832 118.182Z" fill="#3F3D56"/>
<path d="M141.809 118.182H144.611C144.669 118.182 144.716 118.135 144.716 118.077V116.48C144.716 116.422 144.669 116.375 144.611 116.375H141.809C141.751 116.375 141.704 116.422 141.704 116.48V118.077C141.704 118.135 141.751 118.182 141.809 118.182Z" fill="#3F3D56"/>
<path d="M135.786 118.182H138.588C138.646 118.182 138.693 118.135 138.693 118.077V116.48C138.693 116.422 138.646 116.375 138.588 116.375H135.786C135.728 116.375 135.681 116.422 135.681 116.48V118.077C135.681 118.135 135.728 118.182 135.786 118.182Z" fill="#3F3D56"/>
<path d="M129.763 118.182H132.565C132.623 118.182 132.67 118.135 132.67 118.077V116.48C132.67 116.422 132.623 116.375 132.565 116.375H129.763C129.705 116.375 129.658 116.422 129.658 116.48V118.077C129.658 118.135 129.705 118.182 129.763 118.182Z" fill="#3F3D56"/>
<path d="M123.74 118.182H126.542C126.6 118.182 126.647 118.135 126.647 118.077V116.48C126.647 116.422 126.6 116.375 126.542 116.375H123.74C123.682 116.375 123.636 116.422 123.636 116.48V118.077C123.636 118.135 123.682 118.182 123.74 118.182Z" fill="#3F3D56"/>
<path d="M117.718 118.182H120.519C120.577 118.182 120.624 118.135 120.624 118.077V116.48C120.624 116.422 120.577 116.375 120.519 116.375H117.718C117.66 116.375 117.613 116.422 117.613 116.48V118.077C117.613 118.135 117.66 118.182 117.718 118.182Z" fill="#3F3D56"/>
<path d="M111.695 118.182H114.497C114.554 118.182 114.601 118.135 114.601 118.077V116.48C114.601 116.422 114.554 116.375 114.497 116.375H111.695C111.637 116.375 111.59 116.422 111.59 116.48V118.077C111.59 118.135 111.637 118.182 111.695 118.182Z" fill="#3F3D56"/>
<path d="M105.672 118.182H108.474C108.532 118.182 108.578 118.135 108.578 118.077V116.48C108.578 116.422 108.532 116.375 108.474 116.375H105.672C105.614 116.375 105.567 116.422 105.567 116.48V118.077C105.567 118.135 105.614 118.182 105.672 118.182Z" fill="#3F3D56"/>
<path d="M99.6491 118.182H102.451C102.509 118.182 102.556 118.135 102.556 118.077V116.48C102.556 116.422 102.509 116.375 102.451 116.375H99.6491C99.5912 116.375 99.5443 116.422 99.5443 116.48V118.077C99.5443 118.135 99.5912 118.182 99.6491 118.182Z" fill="#3F3D56"/>
<path d="M93.6262 118.182H96.428C96.4859 118.182 96.5328 118.135 96.5328 118.077V116.48C96.5328 116.422 96.4859 116.375 96.428 116.375H93.6262C93.5683 116.375 93.5214 116.422 93.5214 116.48V118.077C93.5214 118.135 93.5683 118.182 93.6262 118.182Z" fill="#3F3D56"/>
<path d="M87.6034 118.182H90.4052C90.4631 118.182 90.51 118.135 90.51 118.077V116.48C90.51 116.422 90.4631 116.375 90.4052 116.375H87.6034C87.5455 116.375 87.4986 116.422 87.4986 116.48V118.077C87.4986 118.135 87.5455 118.182 87.6034 118.182Z" fill="#3F3D56"/>
<path d="M81.5806 118.182H84.3824C84.4403 118.182 84.4872 118.135 84.4872 118.077V116.48C84.4872 116.422 84.4403 116.375 84.3824 116.375H81.5806C81.5227 116.375 81.4758 116.422 81.4758 116.48V118.077C81.4758 118.135 81.5227 118.182 81.5806 118.182Z" fill="#3F3D56"/>
<path d="M75.5577 118.182H78.3596C78.4174 118.182 78.4644 118.135 78.4644 118.077V116.48C78.4644 116.422 78.4174 116.375 78.3596 116.375H75.5577C75.4999 116.375 75.4529 116.422 75.4529 116.48V118.077C75.4529 118.135 75.4999 118.182 75.5577 118.182Z" fill="#3F3D56"/>
<path d="M69.5348 118.182H72.3366C72.3945 118.182 72.4414 118.135 72.4414 118.077V116.48C72.4414 116.422 72.3945 116.375 72.3366 116.375H69.5348C69.4769 116.375 69.43 116.422 69.43 116.48V118.077C69.43 118.135 69.4769 118.182 69.5348 118.182Z" fill="#3F3D56"/>
<path d="M63.512 118.182H66.3138C66.3717 118.182 66.4186 118.135 66.4186 118.077V116.48C66.4186 116.422 66.3717 116.375 66.3138 116.375H63.512C63.4541 116.375 63.4072 116.422 63.4072 116.48V118.077C63.4072 118.135 63.4541 118.182 63.512 118.182Z" fill="#3F3D56"/>
<path d="M57.4891 118.182H60.2909C60.3488 118.182 60.3958 118.135 60.3958 118.077V116.48C60.3958 116.422 60.3488 116.375 60.2909 116.375H57.4891C57.4313 116.375 57.3843 116.422 57.3843 116.48V118.077C57.3843 118.135 57.4313 118.182 57.4891 118.182Z" fill="#3F3D56"/>
<path d="M147.903 121.193H150.705C150.763 121.193 150.81 121.146 150.81 121.088V119.491C150.81 119.433 150.763 119.386 150.705 119.386H147.903C147.845 119.386 147.798 119.433 147.798 119.491V121.088C147.798 121.146 147.845 121.193 147.903 121.193Z" fill="#3F3D56"/>
<path d="M141.88 121.193H144.682C144.74 121.193 144.787 121.146 144.787 121.088V119.491C144.787 119.433 144.74 119.386 144.682 119.386H141.88C141.822 119.386 141.775 119.433 141.775 119.491V121.088C141.775 121.146 141.822 121.193 141.88 121.193Z" fill="#3F3D56"/>
<path d="M135.857 121.193H138.659C138.717 121.193 138.764 121.146 138.764 121.088V119.491C138.764 119.433 138.717 119.386 138.659 119.386H135.857C135.799 119.386 135.753 119.433 135.753 119.491V121.088C135.753 121.146 135.799 121.193 135.857 121.193Z" fill="#3F3D56"/>
<path d="M129.834 121.193H132.636C132.694 121.193 132.741 121.146 132.741 121.088V119.491C132.741 119.433 132.694 119.386 132.636 119.386H129.834C129.777 119.386 129.73 119.433 129.73 119.491V121.088C129.73 121.146 129.777 121.193 129.834 121.193Z" fill="#3F3D56"/>
<path d="M123.812 121.193H126.613C126.671 121.193 126.718 121.146 126.718 121.088V119.491C126.718 119.433 126.671 119.386 126.613 119.386H123.812C123.754 119.386 123.707 119.433 123.707 119.491V121.088C123.707 121.146 123.754 121.193 123.812 121.193Z" fill="#3F3D56"/>
<path d="M117.789 121.193H120.591C120.648 121.193 120.695 121.146 120.695 121.088V119.491C120.695 119.433 120.648 119.386 120.591 119.386H117.789C117.731 119.386 117.684 119.433 117.684 119.491V121.088C117.684 121.146 117.731 121.193 117.789 121.193Z" fill="#3F3D56"/>
<path d="M111.766 121.193H114.568C114.626 121.193 114.672 121.146 114.672 121.088V119.491C114.672 119.433 114.626 119.386 114.568 119.386H111.766C111.708 119.386 111.661 119.433 111.661 119.491V121.088C111.661 121.146 111.708 121.193 111.766 121.193Z" fill="#3F3D56"/>
<path d="M105.743 121.193H108.545C108.603 121.193 108.65 121.146 108.65 121.088V119.491C108.65 119.433 108.603 119.386 108.545 119.386H105.743C105.685 119.386 105.638 119.433 105.638 119.491V121.088C105.638 121.146 105.685 121.193 105.743 121.193Z" fill="#3F3D56"/>
<path d="M99.7202 121.193H102.522C102.58 121.193 102.627 121.146 102.627 121.088V119.491C102.627 119.433 102.58 119.386 102.522 119.386H99.7202C99.6623 119.386 99.6154 119.433 99.6154 119.491V121.088C99.6154 121.146 99.6623 121.193 99.7202 121.193Z" fill="#3F3D56"/>
<path d="M93.6974 121.193H96.4992C96.5571 121.193 96.604 121.146 96.604 121.088V119.491C96.604 119.433 96.5571 119.386 96.4992 119.386H93.6974C93.6395 119.386 93.5926 119.433 93.5926 119.491V121.088C93.5926 121.146 93.6395 121.193 93.6974 121.193Z" fill="#3F3D56"/>
<path d="M87.6746 121.193H90.4764C90.5343 121.193 90.5812 121.146 90.5812 121.088V119.491C90.5812 119.433 90.5343 119.386 90.4764 119.386H87.6746C87.6167 119.386 87.5698 119.433 87.5698 119.491V121.088C87.5698 121.146 87.6167 121.193 87.6746 121.193Z" fill="#3F3D56"/>
<path d="M81.6517 121.193H84.4536C84.5114 121.193 84.5583 121.146 84.5583 121.088V119.491C84.5583 119.433 84.5114 119.386 84.4536 119.386H81.6517C81.5939 119.386 81.5469 119.433 81.5469 119.491V121.088C81.5469 121.146 81.5939 121.193 81.6517 121.193Z" fill="#3F3D56"/>
<path d="M75.6289 121.193H78.4307C78.4886 121.193 78.5355 121.146 78.5355 121.088V119.491C78.5355 119.433 78.4886 119.386 78.4307 119.386H75.6289C75.571 119.386 75.5241 119.433 75.5241 119.491V121.088C75.5241 121.146 75.571 121.193 75.6289 121.193Z" fill="#3F3D56"/>
<path d="M69.606 121.193H72.4078C72.4657 121.193 72.5126 121.146 72.5126 121.088V119.491C72.5126 119.433 72.4657 119.386 72.4078 119.386H69.606C69.5481 119.386 69.5011 119.433 69.5011 119.491V121.088C69.5011 121.146 69.5481 121.193 69.606 121.193Z" fill="#3F3D56"/>
<path d="M63.5831 121.193H66.3849C66.4428 121.193 66.4897 121.146 66.4897 121.088V119.491C66.4897 119.433 66.4428 119.386 66.3849 119.386H63.5831C63.5253 119.386 63.4783 119.433 63.4783 119.491V121.088C63.4783 121.146 63.5253 121.193 63.5831 121.193Z" fill="#3F3D56"/>
<path d="M57.5603 121.193H60.3621C60.42 121.193 60.4669 121.146 60.4669 121.088V119.491C60.4669 119.433 60.42 119.386 60.3621 119.386H57.5603C57.5024 119.386 57.4555 119.433 57.4555 119.491V121.088C57.4555 121.146 57.5024 121.193 57.5603 121.193Z" fill="#3F3D56"/>
<path d="M91.2582 124.807H115.14C115.198 124.807 115.245 124.76 115.245 124.702V123.105C115.245 123.047 115.198 123 115.14 123H91.2582C91.2003 123 91.1534 123.047 91.1534 123.105V124.702C91.1534 124.76 91.2003 124.807 91.2582 124.807Z" fill="#3F3D56"/>
<path d="M124.763 87.1584C124.753 92.2312 122.846 97.1168 119.416 100.855C115.987 104.593 111.283 106.912 106.23 107.358C101.177 107.804 96.1395 106.343 92.1087 103.263C88.0779 100.183 85.3451 95.7067 84.4474 90.7139C83.5497 85.7212 84.5522 80.5733 87.2577 76.2822C89.9632 71.9911 94.176 68.8673 99.068 67.5248C103.96 66.1824 109.177 66.7185 113.694 69.0277C118.211 71.3369 121.7 75.2521 123.476 80.0037C123.521 80.123 123.564 80.2424 123.606 80.3628V80.364C123.793 80.8935 123.959 81.4329 124.101 81.9822C124.542 83.6723 124.764 85.4118 124.763 87.1584Z" fill="#3F3D56"/>
<path d="M102.07 73.3577C101.151 72.8606 100.13 72.58 99.086 72.5373C98.0418 72.4946 97.0017 72.6909 96.0449 73.1112C95.2025 73.4778 94.3154 74.1355 94.0344 75.3231C95.171 74.6524 96.6423 75.7122 96.9348 77.4124L96.8665 77.4312C96.712 78.6088 97.0569 79.8909 97.7245 80.6211C97.7742 80.2916 97.8966 79.9773 98.0828 79.7011C98.2691 79.4248 98.5146 79.1935 98.8014 79.024C99.2919 78.7015 99.8346 78.4673 100.209 77.913C100.653 77.2559 100.766 76.2956 100.942 75.4195C101.118 74.5434 101.453 73.6018 102.07 73.3577Z" fill="#66CC00"/>
<path d="M95.7077 83.3788C95.3929 83.8515 94.9724 84.1481 94.5952 84.5175C94.1596 84.9136 93.8739 85.4478 93.7861 86.03C93.7383 86.4414 93.8122 86.8595 93.802 87.2755C93.7918 87.6914 93.6531 88.1596 93.3701 88.263C92.9235 88.4243 92.5826 87.5948 92.1235 87.5368C91.7587 87.4914 91.4303 88.0652 91.536 88.563C91.6417 89.0607 92.1383 89.2812 92.4235 88.9562C92.6815 89.3891 92.4997 90.1744 92.1122 90.3073C92.0713 90.5801 92.0304 90.8517 91.9906 91.1244C91.011 90.4391 90.0212 89.7426 89.1882 88.7391C88.2618 87.6326 87.6873 86.2745 87.5382 84.839C87.4303 83.6856 87.5905 82.3663 87.0609 81.4788C86.6371 80.7685 85.9098 80.6117 85.2552 80.656C85.1359 80.664 85.0154 80.6776 84.8961 80.6924C85.2821 79.533 85.7724 78.4109 86.3609 77.34C86.4941 77.2829 86.6178 77.2059 86.728 77.1116C87.3371 76.5946 87.6075 75.5479 88.1019 74.8241C88.1337 74.7775 88.1666 74.732 88.2007 74.6877C88.7064 74.0275 89.3837 73.6877 90.0383 73.3718C91.4872 72.6683 92.9781 71.9558 94.5077 72.0536L94.0724 72.0956C93.5645 73.5184 93.0561 74.9411 92.5474 76.3639C92.4701 76.5821 92.3921 76.8006 92.3133 77.0196C92.0247 77.8287 91.7269 78.6901 91.7713 79.5958C91.7974 80.1321 91.9838 80.7049 92.3383 80.889C92.669 81.0594 93.0304 80.8503 93.3497 80.6435C93.4849 80.5571 93.619 80.4708 93.7542 80.3833C94.2395 80.0708 94.777 79.7503 95.2895 79.9594C95.7588 80.1503 96.1054 80.7878 96.1713 81.4754C96.2318 82.1437 96.0687 82.8131 95.7077 83.3788Z" fill="#66CC00"/>
<path d="M98.5936 93.0923C97.1764 92.2197 95.7592 91.3471 94.342 90.4746L94.3661 90.4126C93.4849 90.7482 93.1191 92.3145 93.2647 93.5954C93.4103 94.8763 93.9041 96.0213 94.1536 97.2693C94.4899 98.9773 94.363 100.744 93.7859 102.386C95.6494 100.295 97.2986 98.0229 98.7087 95.6029C98.9057 95.2979 99.0558 94.965 99.154 94.6155C99.2581 94.243 99.221 93.8452 99.0499 93.4983C98.9339 93.3271 98.7771 93.1876 98.5936 93.0923Z" fill="#66CC00"/>
<path d="M93.0005 77.2175C92.8341 77.5748 92.8085 77.9817 92.9287 78.3571C93.0685 78.6596 93.3222 78.8945 93.6344 79.0108L94.4175 79.3989C94.678 79.528 94.9588 79.6585 95.2244 79.5522C95.5447 79.4241 95.7668 78.9219 95.7093 78.4558C95.6482 77.9597 95.3355 77.6184 95.0463 77.3278C94.6416 76.9212 94.2369 76.5145 93.8321 76.1079L93.6041 76.3872C93.3574 76.6279 93.1533 76.9086 93.0005 77.2175Z" fill="#66CC00"/>
<path d="M120.565 82.5208C120.917 82.6038 121.27 82.6867 121.622 82.7697C121.56 83.9595 120.971 85.0606 120.18 85.4595C119.85 85.6254 119.483 85.6868 119.21 85.997C118.964 86.2788 118.839 86.7175 118.724 87.1368C118.523 87.8686 118.322 88.6005 118.121 89.3323C117.905 90.121 117.627 90.9971 117.066 91.2812C116.584 91.5255 116.033 91.2267 115.663 90.7255C115.292 90.2244 115.066 89.5505 114.847 88.8937C114.86 89.6096 114.527 90.3119 114.056 90.5607C113.583 90.8096 113.008 90.5846 112.692 90.0289C112.465 89.63 112.371 89.1039 112.148 88.6993C111.925 88.2948 111.458 88.063 111.215 88.4425C111.055 88.6948 111.075 89.0812 110.996 89.4016C110.955 89.6144 110.85 89.8094 110.694 89.9595C110.538 90.1096 110.339 90.2073 110.125 90.2391C109.928 90.2346 109.734 90.1901 109.555 90.1082C109.376 90.0264 109.215 89.9089 109.083 89.763C108.387 89.0511 107.934 88.1375 107.789 87.1527C107.69 86.6806 107.703 86.1919 107.825 85.7254C107.965 85.2834 108.302 84.9425 108.638 85.0265C108.858 84.5606 108.423 83.9424 108.031 83.997C107.637 84.0515 107.33 84.4731 107.007 84.797C106.685 85.1209 106.235 85.3561 105.911 85.0345C105.915 85.0957 105.906 85.157 105.885 85.2145C105.864 85.2721 105.831 85.3247 105.789 85.369C105.747 85.4133 105.695 85.4483 105.639 85.4719C105.582 85.4955 105.521 85.5071 105.46 85.5061C105.245 85.4443 105.045 85.3382 104.873 85.1947C104.131 84.7322 103.189 85.039 102.661 85.9141C102.991 84.5118 103.474 82.9026 104.486 82.5731C104.9 82.4379 105.351 82.5492 105.742 82.3151C106.434 81.9003 106.574 80.3333 105.976 79.6867C106.052 80.298 106.037 81.0117 105.715 81.4299C105.392 81.8481 104.715 81.5753 104.756 80.9572C104.746 81.0441 104.71 81.1259 104.651 81.1909C104.593 81.2558 104.515 81.3006 104.43 81.3187C104.344 81.3369 104.255 81.3275 104.175 81.292C104.095 81.2564 104.029 81.1965 103.985 81.1208C103.77 80.7935 103.789 80.2583 103.941 79.8674C104.098 79.5133 104.323 79.1936 104.603 78.9264C105.143 78.348 105.691 77.7628 106.316 77.3991C106.942 77.0355 107.665 76.9128 108.292 77.2741C108.623 77.465 108.914 77.7832 109.251 77.9514C109.332 78.0016 109.422 78.035 109.516 78.0497C109.61 78.0644 109.706 78.0601 109.798 78.037C109.891 78.0139 109.978 77.9724 110.054 77.9152C110.13 77.8579 110.193 77.786 110.241 77.7037C110.492 77.2628 110.374 76.6082 110.467 76.0571C110.634 75.0832 111.608 74.6275 112.148 75.2707C111.744 75.1673 111.327 75.6445 111.277 76.223C111.226 76.8014 111.518 77.3855 111.909 77.5605C112.566 77.8514 113.209 77.1196 113.706 76.4423C114.224 75.7332 114.743 75.0245 115.263 74.3161C115.346 74.1955 115.439 74.0822 115.541 73.9775C115.704 73.8188 115.921 73.728 116.148 73.7233C116.375 73.7187 116.596 73.8006 116.765 73.9525C117.29 74.3809 117.537 75.2593 117.967 75.8639C118.592 76.7423 119.528 76.9559 120.398 77.1264C121.047 77.2525 121.696 77.3794 122.346 77.5071C122.779 78.3127 123.157 79.1469 123.476 80.0037C122.285 80.547 121.275 81.4205 120.565 82.5208Z" fill="#66CC00"/>
<path d="M124.102 81.9822C123.968 82.3746 123.896 82.785 123.886 83.1992C123.329 82.5197 123.24 81.2458 123.606 80.364C123.794 80.8935 123.959 81.4329 124.102 81.9822Z" fill="#66CC00"/>
<path d="M122.663 96.1938C122.176 97.1824 121.61 98.1298 120.97 99.0268C120.56 98.8518 120.121 99.1643 119.738 99.4575C119.338 99.7643 118.857 100.063 118.447 99.7837C118.027 99.4973 117.892 98.6961 118.025 98.0609C118.178 97.4749 118.445 96.9249 118.812 96.4427C119.152 95.9336 119.517 95.4052 119.991 95.2074C120.466 95.0097 121.076 95.2892 121.215 95.9643L121.551 95.9529C121.363 95.6938 121.462 95.1574 121.715 95.0631C122.007 94.9529 122.26 95.354 122.433 95.7086C122.51 95.8688 122.589 96.0302 122.663 96.1938Z" fill="#66CC00"/>
<path d="M109.78 91.3938C109.057 91.4393 108.484 90.5492 108.104 89.6736C107.723 88.798 107.376 87.7967 106.724 87.351C106.351 87.0963 105.926 87.0614 105.522 86.938C105.292 86.88 105.08 86.7683 104.902 86.612C104.725 86.4557 104.587 86.2593 104.501 86.0392L104.042 85.8539C103.401 86.1746 102.813 86.5935 102.301 87.0955C101.715 87.7173 101.351 88.5144 101.263 89.3639C101.176 90.2819 101.499 91.3055 102.104 91.6504C102.581 91.9229 103.137 91.7511 103.621 92.0006C104.226 92.3123 104.585 93.2176 104.72 94.1116C104.856 95.0055 104.822 95.9345 104.919 96.8386C105.016 97.7427 105.284 98.6834 105.838 99.1467C106.532 99.7265 107.55 99.2447 107.861 98.1893C108.014 97.6716 108.009 97.0875 108.123 96.5501C108.324 95.6038 108.867 94.9016 109.297 94.1253C109.727 93.3491 110.066 92.2947 109.78 91.3938Z" fill="#66CC00"/>
<path d="M102.636 82.0946C102.703 82.1567 102.766 82.2235 102.824 82.2945C102.884 82.3979 102.915 82.5156 102.912 82.6351C102.91 82.7546 102.876 82.8713 102.812 82.9726C102.899 82.9676 102.985 82.9447 103.062 82.9051C103.14 82.8656 103.209 82.8104 103.264 82.743C103.396 82.5927 103.512 82.4292 103.611 82.255C103.657 82.1954 103.69 82.1266 103.707 82.0532C103.725 81.9798 103.727 81.9035 103.713 81.8294C103.679 81.7319 103.598 81.6903 103.541 81.617C103.463 81.4737 103.409 81.3181 103.383 81.1568C103.351 81.0056 103.278 80.8662 103.172 80.7542C103.066 80.6422 102.93 80.5621 102.781 80.5228L102.817 80.5298C102.756 80.5664 102.707 80.6213 102.678 80.687C102.649 80.7526 102.642 80.8257 102.656 80.8959C102.678 81.0377 102.769 81.1554 102.76 81.3C102.747 81.508 102.54 81.6056 102.527 81.8136C102.525 81.9179 102.564 82.0189 102.636 82.0946Z" fill="#66CC00"/>
<path d="M101.397 78.5604L101.4 78.5598C101.422 78.5395 101.443 78.5176 101.462 78.4941L101.397 78.5604Z" fill="#6C63FF"/>
<path d="M101.614 79.5366C101.701 79.4604 101.765 79.3618 101.799 79.2516C101.834 79.1414 101.838 79.0237 101.81 78.9116C101.758 78.6751 101.572 78.5161 101.4 78.5598C101.35 78.6102 101.289 78.6472 101.221 78.6672C101.153 78.6872 101.081 78.6896 101.012 78.6741C100.906 78.6468 100.789 78.5766 100.697 78.6564C100.645 78.7161 100.608 78.7879 100.59 78.8655C100.556 78.97 100.522 79.0744 100.488 79.1789C100.472 79.2163 100.468 79.2577 100.476 79.2976C100.483 79.3136 100.493 79.3277 100.507 79.3384C100.52 79.3491 100.536 79.3562 100.553 79.359C100.758 79.4192 100.962 79.4793 101.166 79.5395C101.236 79.5719 101.313 79.5885 101.39 79.588C101.468 79.5874 101.544 79.5699 101.614 79.5366Z" fill="#66CC00"/>
<path d="M117.028 93.014C116.934 92.8595 116.839 92.705 116.745 92.5505C116.652 92.3715 116.525 92.2124 116.372 92.082C116.338 92.0537 116.299 92.0324 116.257 92.0194C116.215 92.0065 116.17 92.002 116.126 92.0064C116.083 92.0108 116.04 92.0239 116.001 92.045C115.963 92.0661 115.928 92.0947 115.901 92.1291L115.912 92.2174C116.165 92.4883 116.337 92.8243 116.41 93.1877C116.431 93.3456 116.424 93.5091 116.443 93.6677C116.445 93.7412 116.461 93.8136 116.491 93.8808C116.521 93.948 116.564 94.0086 116.618 94.0591C116.766 94.1584 116.941 94.012 117.046 93.8334C117.141 93.6867 117.183 93.5124 117.167 93.3387C117.143 93.2221 117.096 93.1116 117.028 93.014Z" fill="#66CC00"/>
<path d="M118.509 93.2151C118.527 93.0705 118.515 92.9237 118.474 92.7837C118.467 92.5944 118.517 92.4073 118.618 92.2468C118.718 92.0953 118.794 91.9293 118.843 91.7545C118.863 91.6748 118.859 91.5909 118.832 91.5134C118.801 91.4432 118.725 91.4112 118.682 91.4667L118.774 91.5266C118.649 91.5042 118.52 91.5104 118.398 91.5448C118.328 91.5716 118.265 91.6149 118.215 91.6709C118.166 91.727 118.13 91.7942 118.112 91.8669C118.096 91.9802 118.071 92.092 118.037 92.201C117.981 92.3149 117.874 92.3528 117.807 92.4527C117.761 92.5414 117.738 92.64 117.739 92.7398C117.741 92.8396 117.767 92.9375 117.816 93.0245C117.901 93.1669 118.036 93.2727 118.194 93.3214C118.307 93.3621 118.457 93.3643 118.509 93.2151Z" fill="#66CC00"/>
<path d="M121.145 94.0107C121.186 94.1174 121.241 94.2182 121.309 94.3105C121.435 94.4377 121.606 94.3595 121.759 94.3286C121.898 94.3067 122.041 94.3227 122.171 94.3751C122.302 94.4275 122.416 94.5142 122.501 94.6261C122.442 94.3299 122.312 94.0523 122.123 93.8166C121.934 93.5809 121.691 93.394 121.415 93.2715C121.057 93.1473 120.678 93.0882 120.299 93.0969L120.234 93.1135C120.399 93.5945 120.918 93.5838 121.145 94.0107Z" fill="#66CC00"/>
<path d="M109.978 94.9945L109.979 94.9966L109.998 94.9602L109.978 94.9945Z" fill="#6C63FF"/>
<path d="M109.578 95.7687C109.491 95.9271 109.416 96.0919 109.354 96.2617C109.271 96.5367 109.217 96.8192 109.191 97.1051C109.171 97.2677 109.164 97.4753 109.266 97.5545C109.295 97.574 109.331 97.5821 109.365 97.5773C109.4 97.5726 109.432 97.5554 109.455 97.5289C109.512 97.469 109.558 97.4002 109.592 97.3252C109.792 96.9805 109.948 96.6116 110.055 96.2276C110.166 95.8201 110.14 95.3872 109.979 94.9966C109.845 95.2539 109.712 95.5113 109.578 95.7687Z" fill="#66CC00"/>
<path d="M105.719 75.1415C105.783 75.2036 105.863 75.2458 105.95 75.2628C106.037 75.2798 106.128 75.2709 106.21 75.2373C106.38 75.1628 106.536 75.0597 106.672 74.9323C106.784 74.8494 106.879 74.7457 106.952 74.6269C106.992 74.5559 107.017 74.4776 107.027 74.3967C107.037 74.3157 107.031 74.2336 107.009 74.1551C106.977 74.0798 106.928 74.0138 106.864 73.9633C106.8 73.9127 106.724 73.8793 106.644 73.8661C106.417 73.7989 106.19 73.7317 105.964 73.6645L106.128 73.5168C105.959 73.4262 105.772 73.5942 105.667 73.8022C105.599 73.9381 105.552 74.0831 105.527 74.2328C105.491 74.3891 105.49 74.5513 105.523 74.7083C105.556 74.8652 105.623 75.013 105.719 75.1415Z" fill="#66CC00"/>
<path d="M109.72 73.7983C109.784 73.8687 109.872 73.9121 109.967 73.9199C110.062 73.9276 110.156 73.8989 110.231 73.8398C110.295 73.7917 110.348 73.7306 110.387 73.6606C110.426 73.5905 110.449 73.5131 110.456 73.4333C110.472 73.255 110.384 73.0569 110.258 73.0415L110.287 72.8746C110.045 72.8308 109.746 72.822 109.616 73.1165C109.572 73.2293 109.559 73.3516 109.577 73.4713C109.595 73.5909 109.645 73.7037 109.72 73.7983Z" fill="#66CC00"/>
<path d="M145.884 61.6357H62.732C62.6751 61.6345 62.6208 61.611 62.581 61.5702C62.5411 61.5295 62.5188 61.4748 62.5188 61.4178C62.5188 61.3608 62.5411 61.306 62.581 61.2653C62.6208 61.2246 62.6751 61.201 62.732 61.1998H145.884C145.941 61.201 145.995 61.2246 146.035 61.2653C146.075 61.306 146.097 61.3608 146.097 61.4178C146.097 61.4748 146.075 61.5295 146.035 61.5702C145.995 61.611 145.941 61.6345 145.884 61.6357Z" fill="#CACACA"/>
<path d="M67.5314 58.5841C68.8268 58.5841 69.8769 57.5105 69.8769 56.1863C69.8769 54.8621 68.8268 53.7886 67.5314 53.7886C66.236 53.7886 65.1859 54.8621 65.1859 56.1863C65.1859 57.5105 66.236 58.5841 67.5314 58.5841Z" fill="#3F3D56"/>
<path d="M75.6339 58.5841C76.9293 58.5841 77.9794 57.5105 77.9794 56.1863C77.9794 54.8621 76.9293 53.7886 75.6339 53.7886C74.3386 53.7886 73.2885 54.8621 73.2885 56.1863C73.2885 57.5105 74.3386 58.5841 75.6339 58.5841Z" fill="#3F3D56"/>
<path d="M83.7365 58.5841C85.0318 58.5841 86.0819 57.5105 86.0819 56.1863C86.0819 54.8621 85.0318 53.7886 83.7365 53.7886C82.4411 53.7886 81.391 54.8621 81.391 56.1863C81.391 57.5105 82.4411 58.5841 83.7365 58.5841Z" fill="#3F3D56"/>
<path d="M141.028 54.3829H135.273C135.158 54.3851 135.05 54.432 134.97 54.5135C134.89 54.595 134.845 54.7046 134.845 54.8187C134.845 54.9328 134.89 55.0423 134.97 55.1238C135.05 55.2053 135.158 55.2522 135.273 55.2545H141.028C141.142 55.2522 141.251 55.2053 141.331 55.1238C141.411 55.0423 141.455 54.9328 141.455 54.8187C141.455 54.7046 141.411 54.595 141.331 54.5135C141.251 54.432 141.142 54.3851 141.028 54.3829Z" fill="#3F3D56"/>
<path d="M141.028 56.0187H135.273C135.158 56.021 135.05 56.0679 134.97 56.1494C134.89 56.2309 134.845 56.3404 134.845 56.4546C134.845 56.5687 134.89 56.6782 134.97 56.7597C135.05 56.8412 135.158 56.8881 135.273 56.8904H141.028C141.142 56.8881 141.251 56.8412 141.331 56.7597C141.411 56.6782 141.455 56.5687 141.455 56.4546C141.455 56.3404 141.411 56.2309 141.331 56.1494C141.251 56.0679 141.142 56.021 141.028 56.0187Z" fill="#3F3D56"/>
<path d="M141.028 57.6525H135.273C135.158 57.6547 135.05 57.7017 134.97 57.7831C134.89 57.8646 134.845 57.9742 134.845 58.0883C134.845 58.2024 134.89 58.312 134.97 58.3934C135.05 58.4749 135.158 58.5218 135.273 58.5241H141.028C141.142 58.5218 141.251 58.4749 141.331 58.3934C141.411 58.312 141.455 58.2024 141.455 58.0883C141.455 57.9742 141.411 57.8646 141.331 57.7831C141.251 57.7017 141.142 57.6547 141.028 57.6525Z" fill="#3F3D56"/>
<g opacity="0.35">
<path d="M148.087 88.1662C149.425 87.5826 146.711 87.2429 143.632 87.1313C140.552 87.0196 136.827 87.0258 134.859 86.7081C132.956 86.4008 133.096 85.8546 132.936 85.3596C132.776 84.8646 132.045 84.3571 129.075 84.2471C125.374 84.11 119.272 84.6378 116.478 84.3209C113.871 84.0252 115.421 83.0978 111.619 83.0623C109.449 83.042 106.652 83.3478 104.237 83.4216C102.525 83.4959 100.809 83.4064 99.1144 83.1545C97.9371 82.9616 97.1171 82.7171 95.7922 82.5467C92.3136 82.0994 85.5078 82.2498 79.4335 82.8231C73.3591 83.3963 68.1522 84.3358 65.2157 85.2663C62.2792 86.1968 61.4679 87.1129 62.152 87.8898C62.5887 88.3859 63.7065 88.8498 66.4178 89.0491C71.4891 89.422 80.5182 88.7802 85.7586 89.1194C88.6793 89.3085 89.975 89.7773 92.5376 90.0338C95.2907 90.3093 99.321 90.3239 103.281 90.3174C111.525 90.3038 119.981 90.2191 128.603 90.0637C132.204 89.9988 135.978 89.9145 139.81 89.6053C143.642 89.2961 147.551 88.6994 148.359 88.1401" fill="white"/>
</g>
</g>
<defs>
<clipPath id="clip0_13_17">
<rect width="178" height="126.164" fill="white" transform="translate(0 0.418091)"/>
</clipPath>
</defs>
</svg>
